<svg width="163" height="162" viewBox="0 0 163 162" fill="none" xmlns="http://www.w3.org/2000/svg">
<g opacity="0.1" filter="url(#filter0_f_1_1437)">
<circle cx="81.5" cy="81" r="71" fill="url(#paint0_radial_1_1437)"/>
</g>
<g opacity="0.15" filter="url(#filter1_f_1_1437)">
<circle cx="81.5" cy="81" r="55" fill="url(#paint1_radial_1_1437)"/>
</g>
<circle cx="81.5" cy="81" r="35" fill="url(#paint2_radial_1_1437)"/>
<path d="M75.8612 91.1C75.8612 90.8833 75.8196 90.775 75.7362 90.775L75.1612 91.05C75.1612 90.9333 75.0946 90.85 74.9612 90.8L74.7612 90.775C74.6279 90.775 74.4612 90.8333 74.2612 90.95C74.2279 90.8667 74.1862 90.7833 74.1362 90.7C74.0862 90.6167 74.0446 90.5417 74.0112 90.475C73.7946 90.0583 73.5779 89.6 73.3612 89.1C73.1612 88.5833 72.9696 88.0917 72.7862 87.625C72.6196 87.1583 72.4862 86.7917 72.3862 86.525C72.3196 86.3083 72.2446 85.9833 72.1612 85.55C72.0779 85.1167 71.9946 84.5667 71.9112 83.9C72.0946 84.0167 72.2362 84.075 72.3362 84.075C72.4529 84.075 72.5612 83.9 72.6612 83.55C72.7112 83.6167 72.8029 83.65 72.9362 83.65C73.0362 83.65 73.1112 83.6167 73.1612 83.55L73.5612 82.95L74.0112 83.1H74.0362C74.0696 83.1 74.1029 83.0833 74.1362 83.05C74.1696 83.0167 74.2196 82.9833 74.2862 82.95C74.4196 82.8667 74.5196 82.825 74.5862 82.825L74.6612 82.85C75.0779 83.05 75.3446 83.4167 75.4612 83.95C75.7612 85.2167 76.0612 85.85 76.3612 85.85C76.6612 85.85 77.0112 85.5333 77.4112 84.9C77.6112 84.5833 77.8112 84.2167 78.0112 83.8C78.2279 83.3833 78.4446 82.9167 78.6612 82.4C78.6946 82.6 78.7279 82.7 78.7612 82.7C78.8446 82.7 78.9862 82.4917 79.1862 82.075C79.4029 81.6583 79.7446 81.0833 80.2112 80.35C80.4779 79.9 80.8112 79.3917 81.2112 78.825C81.6279 78.2583 82.0696 77.675 82.5362 77.075C83.0029 76.475 83.4529 75.9083 83.8862 75.375C84.3362 74.8417 84.7362 74.3833 85.0862 74C85.4362 73.6167 85.6946 73.3667 85.8612 73.25C86.4946 72.8167 86.9946 72.4 87.3612 72C87.3446 72.1167 87.3196 72.225 87.2862 72.325C87.2696 72.4083 87.2612 72.4667 87.2612 72.5C87.2612 72.5667 87.2946 72.6 87.3612 72.6L88.0612 72.25V72.35C88.0612 72.4833 88.0946 72.55 88.1612 72.55C88.2112 72.55 88.3112 72.475 88.4612 72.325C88.6112 72.175 88.6946 72.0667 88.7112 72L88.6612 72.35L89.5112 71.85L89.3112 72.3C89.5779 72.1167 89.7696 72.025 89.8862 72.025C89.9529 72.025 90.0029 72.0667 90.0362 72.15C90.0696 72.2167 90.0862 72.2833 90.0862 72.35C90.0862 72.45 90.0446 72.5667 89.9612 72.7C89.8779 72.8333 89.7696 72.9917 89.6362 73.175C89.5362 73.3083 89.3696 73.5083 89.1362 73.775C88.9196 74.025 88.5862 74.4 88.1362 74.9C87.6862 75.3833 87.0862 76.0583 86.3362 76.925C86.1362 77.1417 85.8279 77.525 85.4112 78.075C84.9946 78.6083 84.5196 79.2333 83.9862 79.95C83.4696 80.65 82.9529 81.3583 82.4362 82.075C81.9196 82.7917 81.4612 83.4417 81.0612 84.025C80.6612 84.5917 80.3779 85.0167 80.2112 85.3L78.6612 87.925C78.3279 88.4917 78.0529 88.9583 77.8362 89.325C77.6196 89.675 77.4529 89.9167 77.3362 90.05C77.0862 90.35 76.8112 90.6167 76.5112 90.85L76.2862 90.725L76.0862 90.85L75.8612 91.1Z" fill="white"/>
<defs>
<filter id="filter0_f_1_1437" x="0.5" y="0" width="162" height="162" filterUnits="userSpaceOnUse" color-interpolation-filters="sRGB">
<feFlood flood-opacity="0" result="BackgroundImageFix"/>
<feBlend mode="normal" in="SourceGraphic" in2="BackgroundImageFix" result="shape"/>
<feGaussianBlur stdDeviation="5" result="effect1_foregroundBlur_1_1437"/>
</filter>
<filter id="filter1_f_1_1437" x="16.5" y="16" width="130" height="130" filterUnits="userSpaceOnUse" color-interpolation-filters="sRGB">
<feFlood flood-opacity="0" result="BackgroundImageFix"/>
<feBlend mode="normal" in="SourceGraphic" in2="BackgroundImageFix" result="shape"/>
<feGaussianBlur stdDeviation="5" result="effect1_foregroundBlur_1_1437"/>
</filter>
<radialGradient id="paint0_radial_1_1437" cx="0" cy="0" r="1" gradientUnits="userSpaceOnUse" gradientTransform="translate(10.5 -13.1163) rotate(54.4352) scale(202.981)">
<stop offset="0.046875" stop-color="#8BC83F"/>
<stop offset="0.983052" stop-color="#234F68"/>
</radialGradient>
<radialGradient id="paint1_radial_1_1437" cx="0" cy="0" r="1" gradientUnits="userSpaceOnUse" gradientTransform="translate(26.5 8.09303) rotate(54.4352) scale(157.238)">
<stop offset="0.046875" stop-color="#234F68"/>
<stop offset="0.983052" stop-color="#8BC83F"/>
</radialGradient>
<radialGradient id="paint2_radial_1_1437" cx="0" cy="0" r="1" gradientUnits="userSpaceOnUse" gradientTransform="translate(46.5 34.6047) rotate(54.4352) scale(100.061)">
<stop offset="0.046875" stop-color="#234F68"/>
<stop offset="0.983052" stop-color="#8BC83F"/>
</radialGradient>
</defs>
</svg>
