<svg width="20" height="20" viewBox="0 0 20 20" fill="none" xmlns="http://www.w3.org/2000/svg">
<path d="M5.83398 7.5L10.0007 10.4167L14.1673 7.5" stroke="#B38F4B" stroke-width="1.6" stroke-linecap="round" stroke-linejoin="round"/>
<path d="M1.66699 14.1667V5.83341C1.66699 5.39139 1.84259 4.96746 2.15515 4.6549C2.46771 4.34234 2.89163 4.16675 3.33366 4.16675H16.667C17.109 4.16675 17.5329 4.34234 17.8455 4.6549C18.1581 4.96746 18.3337 5.39139 18.3337 5.83341V14.1667C18.3337 14.6088 18.1581 15.0327 17.8455 15.3453C17.5329 15.6578 17.109 15.8334 16.667 15.8334H3.33366C2.89163 15.8334 2.46771 15.6578 2.15515 15.3453C1.84259 15.0327 1.66699 14.6088 1.66699 14.1667Z" stroke="#B38F4B" stroke-width="1.6"/>
</svg>
