<svg width="25" height="24" viewBox="0 0 25 24" fill="none" xmlns="http://www.w3.org/2000/svg">
<path d="M22 9.13809C22.0033 10.5306 21.4401 11.8703 20.4287 12.8757C18.1097 15.1663 15.8601 17.5545 13.4556 19.7609C12.9036 20.2587 12.0287 20.2406 11.5014 19.7202L4.57108 12.8766C2.47631 10.8078 2.47631 7.46837 4.57108 5.40046C5.06617 4.90542 5.66163 4.51132 6.32137 4.24204C6.98111 3.97276 7.69138 3.83391 8.40913 3.83391C9.12687 3.83391 9.83714 3.97276 10.4969 4.24204C11.1566 4.51132 11.7521 4.90542 12.2472 5.40046L12.4999 5.64843L12.7516 5.40046C13.2477 4.9066 13.8434 4.51322 14.5029 4.24388C15.1623 3.97454 15.8721 3.83479 16.5897 3.83301C18.0337 3.83301 19.4141 4.39772 20.4277 5.40046C21.4395 6.40577 22.003 7.7454 22 9.13809V9.13809Z" stroke="#B38F4B" stroke-width="1.67" stroke-linejoin="round"/>
</svg>
