<svg width="20" height="20" viewBox="0 0 20 20" fill="none" xmlns="http://www.w3.org/2000/svg">
<path d="M13.3333 9.99992H6.66667M13.3333 9.99992H14.5C14.6326 9.99992 14.7598 10.0526 14.8536 10.1464C14.9473 10.2401 15 10.3673 15 10.4999V16.1666C15 16.2992 14.9473 16.4264 14.8536 16.5201C14.7598 16.6139 14.6326 16.6666 14.5 16.6666H5.5C5.36739 16.6666 5.24021 16.6139 5.14645 16.5201C5.05268 16.4264 5 16.2992 5 16.1666V10.4999C5 10.3673 5.05268 10.2401 5.14645 10.1464C5.24021 10.0526 5.36739 9.99992 5.5 9.99992H6.66667H13.3333ZM13.3333 9.99992V6.66658C13.3333 5.55575 12.6667 3.33325 10 3.33325C7.33333 3.33325 6.66667 5.55575 6.66667 6.66658V9.99992H13.3333Z" stroke="#B38F4B" stroke-width="1.6" stroke-linecap="round" stroke-linejoin="round"/>
</svg>
