<?xml version="1.0" encoding="iso-8859-1"?>
<!-- Generator: Adobe Illustrator 25.2.0, SVG Export Plug-In . SVG Version: 6.00 Build 0)  -->
<svg version="1.1" id="Layer_1" xmlns="http://www.w3.org/2000/svg" xmlns:xlink="http://www.w3.org/1999/xlink" x="0px" y="0px"
	 width="297px" height="324.573px" viewBox="0 0 297 324.573" enable-background="new 0 0 297 324.573" xml:space="preserve">
<g>
	<g>
		<g>
			<g>
				
					<radialGradient id="SVGID_1_" cx="133.07" cy="89.0817" r="499.0209" gradientTransform="matrix(0.7929 0 0 0.7929 30.7483 28.3356)" gradientUnits="userSpaceOnUse">
					<stop  offset="0" style="stop-color:#F1AF70"/>
					<stop  offset="1" style="stop-color:#D35727"/>
				</radialGradient>
				<path fill="url(#SVGID_1_)" d="M211.79,55.507c0.302,0.478,0.597,0.975,0.875,1.484c0,0,15.248-14.108,27.513,7.711
					c10.001,17.786,22.485,27.483,36.935,25.282c-9.392,11.211-7.586,26.908,2.401,44.694c12.273,21.819-7.709,27.511-7.709,27.511
					c0.293,0.509,0.557,1.018,0.814,1.52c-0.264,0.497-0.551,0.997-0.845,1.5c0,0,19.843,6.15,7.073,27.678
					c-10.399,17.551-12.56,33.207-3.424,44.63c-14.396-2.533-27.103,6.88-37.508,24.427c-12.769,21.532-27.676,7.075-27.676,7.075
					c-0.302,0.507-0.605,0.991-0.915,1.47c-0.567,0.01-1.124,0.022-1.721,0.008c0,0,4.604,20.259-20.43,19.976
					c-20.4-0.233-35.035,5.73-40.359,19.348c-5.013-13.741-19.511-20.034-39.909-20.267c-25.026-0.286-19.968-20.43-19.968-20.43
					c-0.589-0.01-1.162-0.03-1.719-0.056c-0.304-0.485-0.591-0.979-0.877-1.488c0,0-15.249,14.115-27.521-7.707
					c-10.003-17.784-22.477-27.483-36.935-25.284c9.398-11.207,7.6-26.902-2.401-44.69c-12.273-21.821,7.717-27.517,7.717-27.517
					c-0.296-0.509-0.565-1.015-0.814-1.514c0.271-0.501,0.549-0.997,0.846-1.504c0,0-19.845-6.147-7.083-27.682
					c10.405-17.553,12.566-33.209,3.434-44.624c14.394,2.533,27.101-6.876,37.508-24.431c12.765-21.532,27.674-7.075,27.674-7.075
					c0.294-0.505,0.603-0.993,0.907-1.466c0.567-0.018,1.138-0.02,1.727-0.018c0,0-4.602-20.253,20.424-19.967
					c20.408,0.235,35.051-5.724,40.369-19.346c5.004,13.736,19.501,20.032,39.901,20.265c25.034,0.288,19.968,20.434,19.968,20.434
					C210.66,55.458,211.231,55.476,211.79,55.507z"/>
				
					<radialGradient id="SVGID_2_" cx="148.5044" cy="168.9257" r="209.0489" gradientTransform="matrix(0.7929 0 0 0.7929 30.7483 28.3356)" gradientUnits="userSpaceOnUse">
					<stop  offset="0.2581" style="stop-color:#81482A"/>
					<stop  offset="0.462" style="stop-color:#7D4528"/>
					<stop  offset="0.6558" style="stop-color:#723E20"/>
					<stop  offset="0.8451" style="stop-color:#5F3115"/>
					<stop  offset="1" style="stop-color:#492207"/>
				</radialGradient>
				<path fill="url(#SVGID_2_)" d="M207.101,63.424c0.279,0.442,0.543,0.899,0.806,1.377c0,0,14.116-13.067,25.477,7.136
					c9.259,16.467,20.818,25.444,34.185,23.41c-8.686,10.375-7.013,24.912,2.238,41.377c11.358,20.203-7.144,25.473-7.144,25.473
					c0.264,0.472,0.513,0.937,0.752,1.409c-0.249,0.454-0.503,0.921-0.776,1.389c0,0,18.371,5.688,6.549,25.627
					c-9.631,16.244-11.63,30.74-3.177,41.316c-13.336-2.344-25.088,6.364-34.719,22.619c-11.824,19.933-25.621,6.549-25.621,6.549
					c-0.288,0.468-0.567,0.919-0.845,1.359c-0.521,0.008-1.054,0.018-1.604,0.014c0,0,4.261,18.751-18.914,18.484
					c-18.888-0.211-32.441,5.308-37.367,17.915c-4.641-12.715-18.061-18.546-36.951-18.761c-23.174-0.264-18.488-18.92-18.488-18.92
					c-0.541-0.004-1.068-0.024-1.594-0.052c-0.279-0.442-0.543-0.905-0.806-1.373c0,0-14.125,13.069-25.482-7.136
					c-9.251-16.467-20.804-25.442-34.187-23.41c8.694-10.373,7.021-24.912-2.228-41.377c-11.362-20.203,7.142-25.473,7.142-25.473
					c-0.263-0.474-0.511-0.947-0.752-1.407c0.247-0.464,0.505-0.919,0.776-1.391c0,0-18.365-5.69-6.548-25.625
					c9.623-16.252,11.631-30.744,3.179-41.322c13.332,2.352,25.087-6.362,34.719-22.618c11.822-19.933,25.619-6.548,25.619-6.548
					c0.29-0.469,0.567-0.919,0.847-1.357c0.519-0.016,1.054-0.02,1.594-0.016c0,0-4.26-18.753,18.922-18.484
					c18.89,0.219,32.447-5.302,37.367-17.919c4.635,12.719,18.053,18.546,36.951,18.767c23.183,0.267,18.494,18.918,18.494,18.918
					C206.055,63.38,206.576,63.398,207.101,63.424z"/>
				
					<radialGradient id="SVGID_3_" cx="63.3994" cy="12.0075" r="595.4839" gradientTransform="matrix(0.7929 0 0 0.7929 30.7483 28.3356)" gradientUnits="userSpaceOnUse">
					<stop  offset="0" style="stop-color:#F1AF70"/>
					<stop  offset="1" style="stop-color:#D35727"/>
				</radialGradient>
				<path fill="url(#SVGID_3_)" d="M148.504,59.379c56.832,0,102.91,46.075,102.91,102.91c0,56.836-46.077,102.911-102.91,102.911
					c-56.84,0-102.918-46.075-102.918-102.911C45.586,105.454,91.663,59.379,148.504,59.379 M148.504,52.927
					c-60.303,0-109.362,49.059-109.362,109.362c0,60.302,49.059,109.364,109.362,109.364c60.302,0,109.364-49.061,109.364-109.364
					C257.867,101.986,208.806,52.927,148.504,52.927L148.504,52.927z"/>
			</g>
		</g>
	</g>
</g>
<g>
	<path fill="#EEA565" d="M56.479,164.76c0.763-0.254,1.621-0.572,2.575-0.954c0.699-0.254,1.43-0.508,2.193-0.763
		c0.253-0.063,0.508-0.158,0.763-0.287c1.016-0.318,1.939-0.634,2.765-0.954l1.24-0.381c0.381-0.127,0.699-0.253,0.954-0.381
		c0.635-0.191,0.985-0.318,1.049-0.381c0.253-0.062,0.413-0.095,0.477-0.095c0.063,0.064,0.063,0.224,0,0.476
		c-0.191,0.319-0.35,0.572-0.477,0.763c-0.064,0.191-0.159,0.319-0.286,0.381l-0.572,0.287l-1.43,0.476
		c-0.191,0.129-0.477,0.224-0.858,0.287c-0.381,0.128-0.763,0.286-1.144,0.476c-0.445,0.129-0.891,0.287-1.335,0.477l-0.954,0.381
		c-0.381,0.128-0.731,0.255-1.049,0.381c-0.445,0.128-0.891,0.286-1.335,0.476c-0.763,0.255-1.494,0.541-2.193,0.859
		c-0.51,0.191-0.954,0.381-1.335,0.572c-0.128,0.064-0.255,0.095-0.381,0.095L54,167.525c0.063-0.318,0.158-0.634,0.286-0.954
		c0.063-0.253,0.127-0.476,0.191-0.667c0.063-0.191,0.158-0.318,0.286-0.381C55.144,165.332,55.716,165.079,56.479,164.76z
		 M55.335,182.02c-0.381-0.443-0.605-1.016-0.668-1.716c-0.064-0.634,0-1.335,0.191-2.098c0.253-0.763,0.508-1.462,0.763-2.098
		c0.318-0.634,0.635-1.144,0.954-1.526c0.253-0.381,0.444-0.572,0.572-0.572c0.063,0,0.127,0.033,0.191,0.096l-0.095,0.095
		c-0.572,0.827-0.922,1.559-1.049,2.194c-0.128,0.636-0.128,1.177,0,1.621c0.191,0.445,0.477,0.796,0.858,1.049
		c0.444,0.318,0.89,0.509,1.335,0.572c0.444,0.064,0.921,0,1.43-0.191c0.444-0.191,0.825-0.477,1.144-0.859l0.191-0.191
		c0.063,0.064,0.063,0.191,0,0.381c-0.191,0.445-0.381,0.923-0.572,1.431c-0.255,0.445-0.541,0.891-0.858,1.335
		c-0.319,0.381-0.7,0.7-1.144,0.954c-0.381,0.255-0.827,0.381-1.335,0.381C56.351,182.815,55.716,182.53,55.335,182.02z
		 M95.671,153.508c0.444,0,0.825-0.031,1.144-0.095h0.954c0.318-0.063,0.604-0.127,0.858-0.191c0.318,0,0.604-0.063,0.858-0.191
		c-0.191-0.253-0.35-0.539-0.477-0.858c-0.191-0.381-0.35-0.763-0.477-1.144c-0.128-0.381-0.224-0.794-0.286-1.24
		c-0.128-0.444-0.191-0.89-0.191-1.335c0-0.763,0.158-1.621,0.477-2.575c0.253-0.954,0.668-1.874,1.24-2.765
		c0.508-0.825,1.144-1.557,1.907-2.193c0.699-0.699,1.526-1.144,2.479-1.335c0.508-0.062,1.049,0,1.621,0.191
		c0.635,0.128,1.24,0.35,1.812,0.668c0.572,0.319,1.08,0.731,1.526,1.24c0.508,0.445,0.858,1.017,1.049,1.716
		c-0.51-0.318-1.082-0.539-1.716-0.668c-0.636-0.127-1.304-0.222-2.003-0.286c-0.7,0-1.43,0.033-2.193,0.095
		c-0.636,0.064-1.24,0.191-1.812,0.381c-0.572,0.128-1.049,0.319-1.43,0.572c-0.381,0.191-0.636,0.445-0.763,0.763
		c-0.191,0.891-0.255,1.685-0.191,2.384c0.062,0.7,0.222,1.273,0.477,1.716c0.253,0.445,0.604,0.827,1.049,1.144
		c0.381,0.255,0.825,0.445,1.335,0.572c0.444,0.191,0.954,0.286,1.526,0.286c0.572,0.064,1.144,0.095,1.716,0.095
		c0.763,0,1.493-0.031,2.193-0.095c0.635-0.127,1.302-0.286,2.003-0.477c0.699-0.191,1.398-0.413,2.098-0.667
		c0.699-0.318,1.493-0.699,2.384-1.144c0.127-0.062,0.222-0.031,0.286,0.095c0.063,0.064,0.063,0.128,0,0.191l-2.098,2.956
		c-0.954,0.7-1.971,1.335-3.051,1.907c-1.082,0.572-2.162,1.113-3.242,1.621c-1.144,0.445-2.289,0.827-3.433,1.144
		c-1.082,0.319-2.098,0.605-3.051,0.858c-0.954,0.191-1.812,0.35-2.575,0.477c-0.827,0.128-1.494,0.191-2.003,0.191
		c-0.636-0.063-1.177-0.222-1.621-0.477c-0.445-0.318-0.827-0.73-1.144-1.24c-0.381-0.444-0.668-0.921-0.858-1.43
		c-0.255-0.572-0.445-1.08-0.572-1.526c-0.128-0.444-0.255-0.794-0.381-1.049c-0.064-0.318-0.159-0.477-0.286-0.477
		c-0.128-0.062-0.224,0.064-0.286,0.381c-0.064,0.319-0.128,0.731-0.191,1.24v0.095c-0.064,0.51-0.191,1.082-0.381,1.716
		c-0.191,0.636-0.51,1.208-0.954,1.716c-0.381,0.572-0.922,1.082-1.621,1.526c-0.763,0.445-1.685,0.7-2.765,0.763l-0.095-0.191
		v0.191c-0.572,0-1.082-0.095-1.526-0.286c-0.445-0.127-0.796-0.381-1.049-0.763c-0.319-0.253-0.572-0.572-0.763-0.954
		c-0.191-0.318-0.35-0.635-0.477-0.954c-0.191-0.318-0.381-0.572-0.572-0.763c-0.128-0.253-0.319-0.413-0.572-0.477
		c-0.191,0-0.35,0.095-0.477,0.286c-0.128,0.191-0.286,0.477-0.477,0.858c-0.128,0.319-0.319,0.7-0.572,1.144
		c-0.255,0.445-0.636,0.891-1.144,1.335c-0.445,0.381-1.082,0.7-1.907,0.954c-0.763,0.319-1.716,0.477-2.861,0.477
		c-1.017,0-1.845-0.191-2.479-0.572c-0.636-0.381-1.177-0.89-1.621-1.526c-0.445-0.635-0.827-1.335-1.144-2.098
		c-0.319-0.763-0.572-1.493-0.763-2.193c-0.064-0.191-0.128-0.286-0.191-0.286l-0.477,0.477c0,0.064-0.033,0.095-0.095,0.095
		c-0.255,0.255-0.572,0.477-0.954,0.668c-0.445,0.128-0.922,0.255-1.43,0.381c-0.445,0.128-0.954,0.191-1.526,0.191
		c-0.51,0.064-0.954,0.095-1.335,0.095c-0.445,0-0.796-0.031-1.049-0.095c-0.319-0.063-0.477-0.191-0.477-0.381
		c0-0.062,0.031-0.318,0.095-0.763c0-0.444,0.063-0.921,0.191-1.43c0.127-0.572,0.318-1.111,0.572-1.621
		c0.191-0.572,0.444-0.985,0.763-1.24c0.572-0.444,1.144-0.858,1.716-1.24c0.572-0.318,1.111-0.604,1.621-0.858
		c0.444-0.253,0.794-0.444,1.049-0.572c0.063-0.062,0.127-0.095,0.191-0.095c0.381-0.191,0.604-0.381,0.668-0.572v-0.381
		c0.127-0.318,0.253-0.699,0.381-1.144c0.127-0.444,0.286-0.89,0.477-1.335c0.127-0.381,0.253-0.699,0.381-0.954
		c0.063-0.253,0.127-0.349,0.191-0.286c0.063,0.827,0.127,1.716,0.191,2.67l0.191,2.861c0.127,0.954,0.286,1.876,0.477,2.765
		c0.191,0.891,0.444,1.716,0.763,2.479c0.381,0.7,0.858,1.272,1.43,1.716c0.572,0.51,1.302,0.796,2.193,0.858
		c1.335,0.064,2.446-0.063,3.338-0.381c0.89-0.253,1.588-0.572,2.098-0.954c0.508-0.381,0.858-0.794,1.049-1.24
		c0.253-0.444,0.444-0.825,0.572-1.144c0.127-0.318,0.286-0.539,0.477-0.668c0.127-0.191,0.286-0.286,0.477-0.286
		c0.127,0,0.222,0.033,0.286,0.095c0.127,0.128,0.158,0.255,0.095,0.381c-0.319,0.827-0.381,1.43-0.191,1.812
		c0.191,0.445,0.508,0.796,0.954,1.049c0.444,0.191,0.985,0.319,1.621,0.381c0.572,0.064,1.111,0.095,1.621,0.095v0.191l0.095-0.191
		c0.89-0.062,1.716-0.158,2.479-0.286c0.318-0.062,0.635-0.158,0.954-0.286c0.253-0.127,0.539-0.253,0.858-0.381
		c0.253-0.191,0.444-0.381,0.572-0.572c0.191-0.253,0.286-0.508,0.286-0.763c0.063-0.572,0.063-1.366,0-2.384
		c-0.064-1.016-0.159-2.193-0.286-3.528c-0.128-1.335-0.286-2.765-0.477-4.291l-0.381-4.386c-0.128-1.462-0.255-2.892-0.381-4.291
		c-0.064-1.335-0.095-2.511-0.095-3.528c0-0.063,0.063-0.191,0.191-0.381c0.063-0.253,0.158-0.508,0.286-0.763l0.191-0.572
		c0-0.063,0.031-0.127,0.095-0.191c0.063-0.253,0.127-0.477,0.191-0.668v-0.095c0.063,0,0.095,0.033,0.095,0.095
		c0.253,1.082,0.477,2.289,0.668,3.624c0.127,1.335,0.286,2.734,0.477,4.196c0.127,1.399,0.286,2.861,0.477,4.386
		c0.127,1.463,0.286,2.894,0.477,4.291c0.191,1.335,0.413,2.608,0.668,3.814c0.253,1.208,0.539,2.257,0.858,3.147
		c0.381,0.954,0.794,1.685,1.24,2.193C94.494,153.255,95.035,153.508,95.671,153.508z M64.871,148.263
		c-0.255,0.255-0.541,0.51-0.858,0.763l-0.954,0.763c-0.319,0.255-0.572,0.51-0.763,0.763c-0.128,0.128-0.128,0.255,0,0.381
		c0.191,0.128,0.381,0.224,0.572,0.286c0.253,0.064,0.539,0.095,0.858,0.095h0.954c0.253-0.062,0.508-0.095,0.763-0.095
		c0.191-0.063,0.286-0.127,0.286-0.191l-0.095-0.191v-0.286c0-0.318-0.033-0.668-0.095-1.049c0-0.444-0.033-0.825-0.095-1.144
		v-0.572C65.443,147.915,65.252,148.073,64.871,148.263z M93.001,121.945c0.063-0.063,0.095-0.127,0.095-0.191
		c0.699,0.064,1.398,0.033,2.098-0.095c0.763-0.191,1.462-0.413,2.098-0.668c0.572-0.318,1.049-0.699,1.43-1.144
		c0.318-0.381,0.444-0.858,0.381-1.43c-0.255-2.606-0.572-4.99-0.954-7.152c-0.319-2.16-0.668-4.196-1.049-6.103
		c-0.445-1.907-0.858-3.719-1.24-5.435c-0.381-1.716-0.731-3.369-1.049-4.959c-0.064-0.444-0.191-0.794-0.381-1.049
		c-0.128-0.318-0.286-0.604-0.477-0.858l-0.572-0.954c-0.128-0.318-0.191-0.668-0.191-1.049c0-0.063,0.095-0.349,0.286-0.858
		c0.127-0.508,0.318-1.08,0.572-1.716c0.191-0.572,0.381-1.111,0.572-1.621c0.191-0.444,0.318-0.668,0.381-0.668
		c0.381,1.017,0.763,1.78,1.144,2.289c0.444,0.572,0.858,0.986,1.24,1.24c0.318,0.319,0.604,0.541,0.858,0.668
		c0.191,0.191,0.253,0.414,0.191,0.668c-0.064,0.445-0.191,0.922-0.381,1.43c0,0.128-0.033,0.255-0.095,0.381
		c-0.064,0.319-0.159,0.605-0.286,0.858c-0.064,0.381-0.159,0.731-0.286,1.049c-0.064,0.255-0.095,0.414-0.095,0.477
		c0.191,1.335,0.444,2.734,0.763,4.196c0.381,1.463,0.73,3.02,1.049,4.673c0.318,1.59,0.635,3.306,0.954,5.149
		c0.253,1.845,0.444,3.783,0.572,5.817c0.127,1.59,0.095,3.18-0.095,4.768c-0.255,1.463-0.7,2.765-1.335,3.91
		c-0.636,1.144-1.463,2.035-2.479,2.67c-1.017,0.7-2.226,1.017-3.624,0.954c0-0.127-0.033-0.222-0.095-0.286v0.286
		c-0.572,0.064-1.113-0.063-1.621-0.381c-0.445-0.253-0.858-0.572-1.24-0.954l-0.954-1.335l-0.668-1.335
		c-0.255-0.381-0.477-0.699-0.668-0.954c-0.255-0.253-0.51-0.381-0.763-0.381c-0.191,0-0.286,0.224-0.286,0.668
		c-0.064,0.51-0.128,1.113-0.191,1.812c0,0.763-0.033,1.559-0.095,2.384c-0.064,0.891-0.191,1.716-0.381,2.479
		c-0.191,0.763-0.477,1.399-0.858,1.907c-0.381,0.572-0.922,0.891-1.621,0.954c-1.208,0-2.226-0.222-3.051-0.668
		c-0.827-0.508-1.559-1.144-2.193-1.907c-0.572-0.763-1.017-1.653-1.335-2.67c-0.381-0.954-0.731-1.907-1.049-2.861
		c0-0.191-0.064-0.286-0.191-0.286l-0.572,0.572l-0.095,0.191c-0.255,0.255-0.668,0.51-1.24,0.763
		c-0.51,0.191-1.082,0.35-1.716,0.477c-0.636,0.191-1.273,0.319-1.907,0.381c-0.636,0.064-1.24,0.095-1.812,0.095
		c-0.572-0.063-1.017-0.127-1.335-0.191c-0.319-0.127-0.477-0.286-0.477-0.477c-0.064-0.127-0.064-0.444,0-0.954
		c0.063-0.572,0.158-1.207,0.286-1.907c0.191-0.635,0.413-1.302,0.668-2.003c0.318-0.699,0.668-1.24,1.049-1.621
		c0.699-0.635,1.43-1.176,2.193-1.621c0.699-0.444,1.366-0.825,2.003-1.144c0.635-0.318,1.176-0.572,1.621-0.763
		c0.444-0.253,0.699-0.508,0.763-0.763v-0.477c0.063-0.318,0.158-0.668,0.286-1.049l0.191-0.381
		c0.191-0.635,0.349-1.207,0.477-1.716c0.191-0.508,0.381-0.921,0.572-1.24c0.127-0.318,0.191-0.413,0.191-0.286
		c0.127,1.017,0.222,2.131,0.286,3.338c0.063,1.208,0.158,2.417,0.286,3.624c0.127,1.273,0.318,2.479,0.572,3.624
		c0.253,1.144,0.604,2.193,1.049,3.147c0.444,0.891,1.016,1.654,1.716,2.289c0.763,0.572,1.684,0.922,2.765,1.049
		c0.444,0,0.794-0.127,1.049-0.381c0.191-0.253,0.349-0.572,0.477-0.954c0.063-0.381,0.095-0.794,0.095-1.24v-1.144
		c-0.128-1.462-0.286-3.083-0.477-4.863c-0.128-1.716-0.286-3.495-0.477-5.34c-0.191-1.779-0.381-3.591-0.572-5.435
		c-0.128-1.779-0.255-3.495-0.381-5.149c-0.128-1.716-0.255-3.274-0.381-4.673c-0.128-1.462-0.191-2.733-0.191-3.814
		c0.127-0.191,0.253-0.477,0.381-0.858c0.127-0.444,0.286-0.858,0.477-1.24c0.127-0.381,0.253-0.699,0.381-0.954
		c0.127-0.191,0.222-0.191,0.286,0c0.127,0.636,0.253,1.494,0.381,2.575c0.127,1.017,0.253,2.193,0.381,3.528v0.191
		c0.127,1.272,0.286,2.639,0.477,4.1l0.191,1.335c0.063,1.082,0.158,2.131,0.286,3.147c0.191,1.463,0.381,2.894,0.572,4.291
		c0.191,1.399,0.381,2.67,0.572,3.814c0.253,1.273,0.604,2.417,1.049,3.433c0.381,1.082,0.825,1.971,1.335,2.67
		c0.508,0.7,1.08,1.24,1.716,1.621c0.572,0.319,1.144,0.477,1.716,0.477V121.945z M75.742,186.597
		c0.381,0.319,0.858,0.572,1.43,0.763c0.508,0.191,1.08,0.381,1.716,0.572c0.572,0.191,1.049,0.414,1.43,0.668
		c0,0.064,0.031,0.128,0.095,0.191c0.063,0,0.095,0.064,0.095,0.191c0,0.191-0.033,0.509-0.095,0.954v1.335
		c-0.064,0.445-0.128,0.827-0.191,1.144c-0.064,0.318-0.128,0.476-0.191,0.476c-0.445-0.127-0.954-0.318-1.526-0.572l-1.907-0.572
		c-0.636-0.191-1.304-0.318-2.003-0.381c-0.636-0.062-1.208-0.031-1.716,0.096c-0.319,0.128-0.636,0.286-0.954,0.476l-0.954,0.763
		c-0.319,0.319-0.572,0.636-0.763,0.954c-0.255,0.381-0.445,0.763-0.572,1.144c-0.064,0.763-0.064,1.749,0,2.957
		c0.063,1.144,0.191,2.352,0.381,3.624c0.127,1.335,0.286,2.734,0.477,4.196c0.191,1.399,0.349,2.765,0.477,4.1
		c0.127,1.399,0.222,2.67,0.286,3.814c0.127,1.208,0.158,2.227,0.095,3.051c0,0.255-0.033,0.51-0.095,0.763
		c-0.064,0.191-0.128,0.414-0.191,0.668l-0.191,0.572c0,0.064-0.033,0.128-0.095,0.191c-0.064,0.255-0.128,0.54-0.191,0.858
		c-0.445-4.196-0.827-7.691-1.144-10.489l-0.763-6.866c-0.128-1.716-0.224-2.956-0.286-3.719c-0.064-0.89-0.095-1.367-0.095-1.431
		c-0.064-0.89-0.033-1.843,0.095-2.861c0.127-1.08,0.413-2.098,0.858-3.051c0.381-0.954,0.954-1.811,1.716-2.574
		c0.763-0.699,1.748-1.144,2.956-1.335c0-0.254,0.031-0.508,0.095-0.763c0-0.254,0.031-0.604,0.095-1.049
		c0.127-0.699,0.158-1.557,0.095-2.574c-0.064-1.08-0.159-2.289-0.286-3.624c-0.128-1.271-0.286-2.637-0.477-4.101
		c-0.191-1.526-0.381-2.988-0.572-4.386c-0.128-1.462-0.255-2.861-0.381-4.196c-0.191-1.271-0.286-2.446-0.286-3.528
		c0.063-0.127,0.158-0.349,0.286-0.668l0.381-0.954c0.127-0.318,0.253-0.572,0.381-0.763c0.063-0.126,0.127-0.126,0.191,0
		c0.063,0.51,0.158,1.113,0.286,1.812c0.063,0.7,0.158,1.43,0.286,2.193v0.191c0.127,0.827,0.253,1.749,0.381,2.766l0.381,2.956
		c0.127,0.954,0.286,1.907,0.477,2.861c0.127,1.017,0.286,1.971,0.477,2.861c0.191,1.017,0.444,1.94,0.763,2.766
		c0.318,0.827,0.668,1.559,1.049,2.193c0.381,0.572,0.794,1.049,1.24,1.431c0.508,0.318,1.016,0.476,1.526,0.476
		c1.335-0.062,2.446-0.191,3.338-0.381c0.89-0.191,1.621-0.443,2.193-0.763c0.508-0.253,0.921-0.572,1.24-0.954
		c0.253-0.318,0.444-0.667,0.572-1.048c0.191-0.318,0.349-0.635,0.477-0.954c0.127-0.381,0.318-0.699,0.572-0.954
		c0.127-0.191,0.318-0.287,0.572-0.287c0.191,0,0.318,0.129,0.381,0.381c0,0.191-0.064,0.477-0.191,0.859
		c-0.128,0.445-0.286,0.858-0.477,1.239c-0.128,0.445-0.224,0.827-0.286,1.144c-0.128,0.381-0.095,0.605,0.095,0.668
		c0.763,0.191,1.588,0.255,2.479,0.191c0.89-0.063,1.716-0.223,2.479-0.477c0.825-0.191,1.526-0.443,2.098-0.763
		c0.572-0.253,0.921-0.508,1.049-0.763c0.063-0.127,0.158-0.381,0.286-0.763c0.063-0.381,0.191-0.825,0.381-1.335
		c0.191-0.443,0.413-0.89,0.668-1.335c0.191-0.443,0.444-0.73,0.763-0.858c0.127,0,0.222,0.033,0.286,0.095
		c0.063,0.129,0.095,0.287,0.095,0.477c-0.064,0.191-0.128,0.414-0.191,0.667l-0.191,0.763c-0.064,0.191-0.128,0.414-0.191,0.668
		c-0.064,0.191-0.095,0.318-0.095,0.381c0,0.191,0.095,0.35,0.286,0.476c0.253,0.129,0.539,0.255,0.858,0.381l1.144,0.191
		c0.444,0.064,0.825,0.129,1.144,0.191c0.318,0,0.572-0.031,0.763-0.095c0.191-0.063,0.253-0.191,0.191-0.381l-0.286-0.572
		c-0.191-0.191-0.286-0.444-0.286-0.763c0-0.127,0.031-0.287,0.095-0.477v-0.381c0.063-0.381,0.158-0.763,0.286-1.144
		c0.063-0.318,0.158-0.634,0.286-0.954c0.127-0.318,0.253-0.508,0.381-0.572c0.063-0.062,0.158,0.033,0.286,0.287
		c0.191,0.191,0.349,0.445,0.477,0.763c0.127,0.318,0.222,0.636,0.286,0.954c0.191,0.381,0.286,0.731,0.286,1.048
		c0,0.892-0.159,1.812-0.477,2.766c-0.191,0.954-0.51,1.749-0.954,2.383c-0.445,0.636-1.017,1.082-1.716,1.335
		c-0.7,0.319-1.526,0.255-2.479-0.191c-0.128-0.062-0.286-0.127-0.477-0.191l-1.144-0.381c-0.191-0.062-0.35-0.095-0.477-0.095
		c-0.128,0-0.255,0.064-0.381,0.191c0,0.064-0.033,0.128-0.095,0.191c-0.064,0.064-0.128,0.159-0.191,0.286
		c-0.128,0.191-0.319,0.414-0.572,0.668c-0.255,0.191-0.605,0.414-1.049,0.667c-0.381,0.191-0.922,0.381-1.621,0.572
		c-0.636,0.129-1.43,0.224-2.384,0.287h-1.144c-0.381,0-0.763-0.032-1.144-0.096c-0.445,0-0.858-0.031-1.24-0.095
		c-0.381-0.127-0.731-0.254-1.049-0.381h-0.381c-0.128,0-0.286,0.033-0.477,0.095c-0.064,0.064-0.159,0.096-0.286,0.096
		c-0.128,0.064-0.224,0.095-0.286,0.095c-0.255,0.129-0.572,0.224-0.954,0.287c-0.445,0.064-0.954,0.159-1.526,0.286
		c-0.572,0.064-1.272,0.129-2.098,0.191c-0.572,0-1.049-0.127-1.43-0.381c-0.445-0.191-0.796-0.443-1.049-0.763
		c-0.319-0.318-0.572-0.667-0.763-1.048c-0.064-0.254-0.159-0.477-0.286-0.668l-0.191-0.381c-0.191-0.318-0.35-0.572-0.477-0.763
		c-0.128-0.191-0.286-0.286-0.477-0.286c-0.064,0-0.128,0.064-0.191,0.191c-0.064,0.191-0.095,0.414-0.095,0.667
		c-0.064,0.255-0.095,0.541-0.095,0.859c0,0.318-0.033,0.7-0.095,1.144C75.106,185.994,75.296,186.344,75.742,186.597z
		 M74.693,117.653c-0.381,0.255-0.763,0.572-1.144,0.954c-0.445,0.319-0.858,0.668-1.24,1.049c-0.445,0.319-0.763,0.636-0.954,0.954
		c-0.128,0.191-0.128,0.35,0,0.477c0.191,0.128,0.444,0.255,0.763,0.381c0.318,0.064,0.668,0.095,1.049,0.095h1.144
		c0.381-0.063,0.668-0.095,0.858-0.095c0.253-0.063,0.381-0.127,0.381-0.191v-0.286c0-0.063-0.033-0.191-0.095-0.381
		c0-0.381-0.033-0.825-0.095-1.335c0-0.508-0.033-1.016-0.095-1.526v-0.763C75.201,117.177,75.01,117.4,74.693,117.653z
		 M74.216,141.207c0.127-0.444,0.286-0.89,0.477-1.335c0.127-0.381,0.253-0.73,0.381-1.049c0.191-0.318,0.318-0.604,0.381-0.858
		c0.063-0.253,0.191-0.572,0.381-0.954l0.572-1.144c0.191-0.318,0.413-0.604,0.668-0.858c0.253-0.253,0.508-0.413,0.763-0.477
		c0.572-0.062,1.016,0.033,1.335,0.286c0.381,0.319,0.668,0.7,0.858,1.144c0.253,0.51,0.413,1.017,0.477,1.526
		c0.063,0.51,0.095,0.986,0.095,1.43c0,0.572-0.064,1.208-0.191,1.907c-0.191,0.7-0.445,1.335-0.763,1.907
		c-0.381,0.572-0.827,1.082-1.335,1.526c-0.51,0.381-1.113,0.572-1.812,0.572c-0.636,0-1.177-0.191-1.621-0.572
		c-0.51-0.381-0.763-0.954-0.763-1.716C74.121,142.098,74.152,141.652,74.216,141.207z M75.837,140.921
		c0.191,0.191,0.413,0.286,0.668,0.286c0.253,0.064,0.539,0.095,0.858,0.095l0.763-0.191c0.253-0.127,0.477-0.286,0.668-0.477
		c0.191-0.127,0.286-0.318,0.286-0.572c0-0.253-0.064-0.477-0.191-0.668c-0.128-0.191-0.286-0.381-0.477-0.572
		c-0.128-0.127-0.319-0.253-0.572-0.381c-0.191-0.063-0.414-0.095-0.668-0.095c-0.191,0-0.381,0.064-0.572,0.191
		c-0.191,0.128-0.381,0.286-0.572,0.477l-0.381,0.763c-0.064,0.255-0.095,0.477-0.095,0.668
		C75.551,140.635,75.646,140.794,75.837,140.921z M80.223,167.907c-0.255-0.191-0.51-0.349-0.763-0.476
		c-0.191-0.127-0.381-0.223-0.572-0.287l-0.191-0.191h-0.095c-0.191-0.127-0.445-0.286-0.763-0.476l0.191-0.572
		c0.191-0.318,0.381-0.699,0.572-1.144c0.191-0.381,0.349-0.763,0.477-1.144l0.286-0.477c0.572,0.191,1.144,0.477,1.716,0.859
		c0.572,0.318,1.08,0.636,1.526,0.954c0.191-0.318,0.349-0.635,0.477-0.954l0.191-0.381c0.191-0.381,0.349-0.73,0.477-1.049
		c0.063-0.127,0.127-0.222,0.191-0.286c0.063-0.127,0.095-0.223,0.095-0.287c0.191,0.064,0.477,0.224,0.858,0.477
		c0.381,0.191,0.763,0.414,1.144,0.667c0.381,0.191,0.699,0.414,0.954,0.668c0.253,0.191,0.381,0.318,0.381,0.381
		c0,0.191-0.064,0.445-0.191,0.763c-0.064,0.255-0.159,0.54-0.286,0.858c-0.128,0.319-0.286,0.636-0.477,0.954
		c-0.128,0.319-0.286,0.572-0.477,0.763l-0.572-0.286c-0.319-0.191-0.7-0.381-1.144-0.572c-0.381-0.254-0.731-0.477-1.049-0.668
		c-0.381-0.191-0.572-0.318-0.572-0.381c-0.064,0.064-0.159,0.255-0.286,0.572c-0.064,0.129-0.159,0.255-0.286,0.381
		c-0.064,0.191-0.159,0.35-0.286,0.477l-0.191,0.381c-0.128,0.191-0.224,0.381-0.286,0.572c-0.191,0.255-0.319,0.414-0.381,0.476
		L80.223,167.907z M171.004,244.289c-4.577-2.099-8.582-4.642-12.015-7.629c-3.433-2.861-6.389-6.039-8.868-9.536
		c-2.417-3.496-4.482-6.993-6.198-10.489c-1.654-3.496-3.02-6.866-4.1-10.108c-1.082-3.178-1.971-6.008-2.67-8.487
		c-0.7-2.479-1.304-4.449-1.812-5.912c-0.51-1.462-1.082-2.16-1.716-2.098c-0.381,0-0.731,0.763-1.049,2.289
		c-0.255,1.526-0.763,3.466-1.526,5.817c-0.763,2.352-1.907,4.863-3.433,7.533c-1.463,2.734-3.687,5.278-6.675,7.629
		c-2.989,2.352-6.803,4.355-11.443,6.008c-4.705,1.653-10.585,2.543-17.641,2.67c-2.798,0.064-5.118-0.318-6.961-1.144
		c-1.78-0.89-3.211-2.065-4.291-3.529c-1.017-1.526-1.685-3.209-2.003-5.054c-0.319-1.907-0.381-3.877-0.191-5.912
		c0.191-1.97,0.539-3.91,1.049-5.817c0.572-1.907,1.24-3.655,2.003-5.244c0.635-1.207,1.144-2.065,1.526-2.575
		c0.444-0.443,0.763-0.667,0.954-0.667c0.191,0,0.286,0.191,0.286,0.572c-0.064,0.381-0.224,0.858-0.477,1.43
		c-0.636,2.543-0.605,4.515,0.095,5.912c0.699,1.399,1.748,2.448,3.147,3.147c1.398,0.763,3.051,1.208,4.959,1.335
		c1.907,0.191,3.75,0.286,5.531,0.286c0.763,0,2.129-0.127,4.1-0.381c2.034-0.253,4.323-0.634,6.866-1.144
		c2.542-0.508,5.181-1.206,7.915-2.098c2.733-0.89,5.181-1.969,7.343-3.242c2.225-1.335,4.037-2.861,5.435-4.577
		c1.335-1.716,1.907-3.719,1.716-6.007c-0.381-4.513-0.891-8.614-1.526-12.302c-0.572-3.75-1.208-7.405-1.907-10.966
		c-0.572-2.924-1.177-5.944-1.812-9.059c-0.128-0.699-0.286-1.398-0.477-2.098c-0.763-3.814-1.494-8.105-2.193-12.873l1.812-12.11
		c1.843,5.149,3.464,10.553,4.863,16.211c1.335,5.721,2.637,11.476,3.91,17.26c1.271,5.785,2.606,11.507,4.005,17.164
		c1.398,5.721,3.178,11.125,5.34,16.211c2.16,5.213,4.768,10.012,7.819,14.399c3.051,4.324,6.771,8.074,11.157,11.252
		c-0.381-3.178,0.127-6.07,1.526-8.677c1.462-2.67,3.464-5.054,6.007-7.152c2.542-2.098,5.436-3.972,8.678-5.626
		c3.178-1.779,6.356-3.305,9.536-4.577c3.114-1.271,5.974-2.415,8.582-3.433c2.606-0.954,4.577-1.843,5.912-2.67l-57.406,0.191
		c0.635-4.386,1.939-8.549,3.91-12.492c1.97-3.941,4.386-7.629,7.247-11.062c2.861-3.433,6.07-6.642,9.632-9.631
		c3.495-2.923,7.088-5.562,10.775-7.915c3.687-2.415,7.374-4.513,11.062-6.294c3.624-1.779,6.993-3.274,10.108-4.482l-2.861-1.812
		c-0.255-0.127-0.191-0.699,0.191-1.716c0.318-1.08,0.826-2.351,1.526-3.814c0.635-1.462,1.398-3.051,2.289-4.768
		c0.89-1.779,1.779-3.369,2.67-4.768c0.89-1.462,1.716-2.67,2.479-3.624c0.763-0.89,1.398-1.335,1.907-1.335
		c1.589,0.128,3.433,0.763,5.531,1.907c2.161,1.272,4.196,2.639,6.103,4.1c1.843,1.463,3.433,2.925,4.768,4.386
		c1.398,1.463,2.034,2.512,1.907,3.147c-0.191,2.226-0.667,4.419-1.43,6.58c-0.701,2.162-1.559,4.1-2.575,5.817
		c-1.017,1.716-2.131,3.115-3.337,4.196c-1.208,1.144-2.417,1.812-3.624,2.003c-10.299,1.716-19.041,3.91-26.224,6.58
		c-7.184,2.734-13.064,5.499-17.641,8.296c-4.641,2.798-8.074,5.468-10.299,8.01c-2.289,2.543-3.656,4.481-4.101,5.816
		c6.484,0,13.477,0.064,20.979,0.191c7.565,0.191,15.193,0.255,22.886,0.191c7.692,0,15.353-0.191,22.982-0.572
		c7.629-0.318,14.78-0.985,21.456-2.002c-0.51,1.78-1.049,3.528-1.622,5.244c-0.572,1.399-1.208,2.894-1.907,4.482
		c-0.7,1.526-1.43,2.829-2.193,3.909c-1.209,1.082-3.275,2.227-6.199,3.433c-2.925,1.208-6.389,2.417-10.394,3.624
		c-3.878,1.273-8.074,2.608-12.587,4.005c-4.514,1.335-8.964,2.67-13.35,4.005c-4.45,1.399-8.677,2.766-12.682,4.101
		c-3.943,1.399-7.343,2.798-10.204,4.196c-2.798,1.335-4.863,2.67-6.198,4.005c-1.273,1.399-1.464,2.734-0.572,4.005
		c0.381,0.636,0.954,1.463,1.716,2.479c0.763,0.954,2.002,2.066,3.719,3.337c1.716,1.273,4.068,2.639,7.057,4.101
		c3.051,1.399,7.056,2.829,12.015,4.291c0.063,1.017,0.032,2.415-0.095,4.196l-0.572,5.435c-0.255,1.779-0.541,3.305-0.859,4.577
		c-0.318,1.271-0.636,1.875-0.954,1.812C180.953,247.817,175.581,246.386,171.004,244.289z M84.896,172.007
		c0.825-0.254,1.716-0.572,2.67-0.954c0.635-0.254,1.335-0.508,2.098-0.763l0.763-0.191c1.016-0.381,1.939-0.73,2.765-1.049
		c0.444-0.127,0.825-0.253,1.144-0.381c0.381-0.127,0.73-0.253,1.049-0.381c0.572-0.191,0.921-0.318,1.049-0.381
		c0.253-0.062,0.413-0.095,0.477-0.095c0,0.064-0.033,0.224-0.095,0.476c-0.128,0.319-0.255,0.572-0.381,0.763
		c-0.128,0.191-0.224,0.319-0.286,0.381c-0.064,0-0.286,0.096-0.668,0.287c-0.319,0.128-0.763,0.286-1.335,0.476
		c-0.255,0.129-0.51,0.224-0.763,0.287c-0.381,0.128-0.796,0.286-1.24,0.476c-0.445,0.129-0.891,0.287-1.335,0.477l-0.954,0.381
		c-0.381,0.128-0.731,0.255-1.049,0.381c-0.445,0.128-0.858,0.286-1.24,0.476c-0.827,0.255-1.559,0.541-2.193,0.859
		c-0.51,0.191-0.986,0.381-1.43,0.572c-0.128,0.064-0.255,0.095-0.381,0.095l-1.144,0.572c0.063-0.318,0.158-0.634,0.286-0.954
		c0.063-0.253,0.127-0.476,0.191-0.667c0.127-0.191,0.222-0.318,0.286-0.381C83.561,172.58,84.133,172.326,84.896,172.007z
		 M96.625,136.439c0.825-0.318,1.748-0.668,2.765-1.049c0.444-0.127,0.89-0.286,1.335-0.477c0.635-0.191,1.271-0.413,1.907-0.668
		c0.444-0.127,0.89-0.286,1.335-0.477l1.812-0.572c0.508-0.191,0.954-0.349,1.335-0.477c0.381-0.127,0.73-0.253,1.049-0.381
		c0.635-0.253,1.016-0.413,1.144-0.477c0.253-0.062,0.413-0.062,0.477,0c0.063,0,0.063,0.128,0,0.381l-0.477,0.954
		c-0.128,0.191-0.224,0.319-0.286,0.381c-0.064,0-0.286,0.095-0.668,0.286c-0.445,0.191-0.986,0.381-1.621,0.572
		c-0.51,0.191-1.082,0.414-1.716,0.667c-0.128,0.064-0.286,0.095-0.477,0.095c-0.255,0.128-0.51,0.224-0.763,0.286
		c-0.572,0.255-1.177,0.477-1.812,0.668c-0.381,0.191-0.796,0.35-1.24,0.477c-0.445,0.191-0.891,0.35-1.335,0.477
		c-0.827,0.319-1.621,0.636-2.384,0.954c-0.7,0.319-1.335,0.572-1.907,0.763c-0.572,0.255-0.986,0.477-1.24,0.668
		c0.063-0.381,0.158-0.73,0.286-1.049c0.063-0.318,0.127-0.572,0.191-0.763c0.127-0.253,0.222-0.413,0.286-0.477
		C95.066,137.011,95.734,136.758,96.625,136.439z M97.483,240.475c-0.7-0.828-1.082-1.876-1.144-3.147
		c-0.128-1.272,0-2.574,0.381-3.909c0.381-1.398,0.858-2.67,1.43-3.814c0.508-1.144,1.049-2.065,1.621-2.766
		c0.508-0.763,0.89-1.111,1.144-1.048c0.063,0,0.127,0.033,0.191,0.095c0.063,0.064,0.063,0.129,0,0.191
		c-1.082,1.464-1.749,2.799-2.003,4.005c-0.255,1.144-0.224,2.131,0.095,2.957c0.318,0.827,0.825,1.493,1.526,2.002
		c0.699,0.508,1.493,0.794,2.384,0.859c0.825,0.126,1.716,0.031,2.67-0.287c0.825-0.255,1.493-0.763,2.003-1.526
		c0.253-0.253,0.413-0.349,0.477-0.286c0.127,0.128,0.127,0.381,0,0.762c-0.319,0.763-0.7,1.589-1.144,2.48
		c-0.445,0.889-0.954,1.716-1.526,2.478c-0.636,0.699-1.335,1.303-2.098,1.812c-0.763,0.444-1.559,0.635-2.384,0.572
		C99.453,241.777,98.246,241.299,97.483,240.475z M111.119,182.592c-0.381-0.191-0.731-0.443-1.049-0.763
		c-0.319-0.253-0.572-0.603-0.763-1.048c-0.191-0.381-0.286-0.826-0.286-1.335c0-0.381,0.063-0.826,0.191-1.335
		c0.063-0.508,0.191-1.049,0.381-1.622c0.191-0.508,0.381-1.048,0.572-1.621c0.253-0.572,0.539-1.08,0.858-1.526
		c0.253-0.381,0.539-0.73,0.858-1.049c0.318-0.253,0.635-0.381,0.954-0.381c0.444,0,0.921,0.16,1.43,0.477
		c0.508,0.381,0.985,0.858,1.43,1.43c0.508,0.572,0.921,1.208,1.24,1.907c0.318,0.763,0.477,1.526,0.477,2.289
		c0,3.18-0.541,6.072-1.621,8.678c-1.082,2.607-2.861,4.927-5.34,6.961c-0.381,0.319-0.731,0.572-1.049,0.763
		c-0.319,0.191-0.636,0.35-0.954,0.477c-0.255,0.128-0.541,0.191-0.858,0.191c-0.319,0.064-0.7,0.095-1.144,0.095
		c-0.954,0-1.94-0.062-2.956-0.191c-0.891-0.127-1.716-0.253-2.479-0.381c-0.763-0.127-1.43-0.253-2.003-0.381
		c-0.51-0.127-0.891-0.253-1.144-0.381c-0.255-0.127-0.286-0.222-0.095-0.286c0.127-0.063,0.477-0.096,1.049-0.096
		c0.89,0.064,1.939-0.031,3.147-0.286c1.207-0.191,2.511-0.604,3.91-1.24c1.335-0.572,2.702-1.335,4.1-2.289
		c1.335-1.016,2.606-2.225,3.814-3.624c0.381-0.443,0.73-0.954,1.049-1.526c0.381-0.572,0.668-1.144,0.858-1.716
		c0.191-0.634,0.253-1.239,0.191-1.811c-0.064-0.572-0.35-1.144-0.858-1.716c-0.128,0.381-0.255,0.796-0.381,1.239
		c-0.064,0.381-0.191,0.763-0.381,1.144c-0.191,0.319-0.445,0.605-0.763,0.859c-0.319,0.191-0.731,0.286-1.24,0.286
		C111.882,182.782,111.501,182.72,111.119,182.592z M104.254,107.545c-0.572-6.42-1.177-12.268-1.812-17.546
		c0-0.381,0.063-0.763,0.191-1.144c0-0.127,0.158-0.763,0.477-1.907c0.318-1.08,0.604-1.939,0.858-2.575
		c0.127-0.253,0.191-0.253,0.191,0c0.253,2.861,0.572,5.817,0.954,8.868c0.381,2.989,0.699,6.484,0.954,10.489
		c0.253,4.005,0.477,7.185,0.668,9.536c0.191,2.352,0.286,4.324,0.286,5.912c0,0.51-0.064,1.335-0.191,2.479
		c-0.128,1.208-0.224,2.035-0.286,2.479c-0.064,0.445-0.159,0.668-0.286,0.668C105.556,119.656,104.888,113.903,104.254,107.545z
		 M107.496,166.858c0.763-0.318,1.621-0.635,2.575-0.954c0.635-0.254,1.335-0.508,2.098-0.763c0.253-0.063,0.508-0.158,0.763-0.287
		c1.016-0.318,1.939-0.634,2.765-0.954c0.444-0.127,0.825-0.253,1.144-0.381c0.381-0.127,0.73-0.253,1.049-0.381
		c0.572-0.191,0.921-0.318,1.049-0.381c0.253-0.127,0.413-0.158,0.477-0.095c0.063,0,0.063,0.128,0,0.381
		c-0.191,0.381-0.35,0.667-0.477,0.858c-0.128,0.191-0.224,0.287-0.286,0.287c-0.064,0.064-0.255,0.159-0.572,0.286
		c-0.319,0.129-0.731,0.287-1.24,0.477c-0.064,0.064-0.128,0.095-0.191,0.095c-0.51,0.191-1.049,0.381-1.621,0.572
		c-0.128,0.064-0.255,0.096-0.381,0.096c-0.445,0.191-0.922,0.381-1.43,0.572c-0.255,0.128-0.541,0.224-0.858,0.286l-0.954,0.381
		l-1.335,0.572c-0.763,0.255-1.494,0.51-2.193,0.763c-0.51,0.191-0.954,0.381-1.335,0.572c-0.128,0.064-0.286,0.129-0.477,0.191
		c-0.51,0.191-0.858,0.381-1.049,0.572c0.063-0.381,0.127-0.699,0.191-0.954c0.063-0.253,0.158-0.476,0.286-0.667
		c0.063-0.254,0.127-0.413,0.191-0.477C106.128,167.398,106.733,167.177,107.496,166.858z M157.463,119.847
		c-2.608,1.526-5.5,2.703-8.678,3.528c-3.18,0.827-6.994,1.335-11.443,1.526c-4.515,0.191-8.487,0.35-11.92,0.477
		c-3.433,0.064-6.326,0.033-8.678-0.095c-2.352-0.191-4.1-0.539-5.245-1.049c-1.082-0.508-1.559-1.24-1.43-2.193
		c0.253-1.398,0.699-2.67,1.335-3.814c0.635-1.016,1.366-1.907,2.193-2.67c0.89-0.763,1.812-1.43,2.765-2.003
		c1.016-0.508,2.003-0.985,2.956-1.43l2.479-1.24c0.763-0.381,1.367-0.794,1.812-1.24c0.127-0.127,0.253-0.286,0.381-0.477
		l0.572-0.763l0.381-0.763c0.127-0.318,0.191-0.604,0.191-0.858c0.063-0.572,0.063-1.366,0-2.384
		c-0.064-1.08-0.159-2.289-0.286-3.624c-0.128-1.335-0.255-2.765-0.381-4.291l-0.381-4.577c-0.128-1.462-0.255-2.861-0.381-4.196
		c-0.064-1.398-0.095-2.575-0.095-3.528c0.063-0.063,0.127-0.222,0.191-0.477c0.063-0.127,0.127-0.286,0.191-0.477
		c0-0.063,0.031-0.158,0.095-0.286l0.191-0.572c0-0.063,0.031-0.127,0.095-0.191c0.063-0.253,0.127-0.477,0.191-0.668h0.095
		c0.191,1.017,0.349,2.162,0.477,3.433c0.191,1.273,0.349,2.639,0.477,4.1c0.127,1.399,0.253,2.829,0.381,4.291
		c0.127,1.463,0.286,2.894,0.477,4.291c0.191,1.399,0.413,2.734,0.668,4.005c0.191,1.273,0.477,2.384,0.858,3.338
		c0.318,1.017,0.73,1.812,1.24,2.384c0.444,0.636,1.016,0.986,1.716,1.049c1.207-0.063,2.225-0.253,3.051-0.572
		c0.825-0.381,1.493-0.763,2.003-1.144c0.508-0.381,0.954-0.73,1.335-1.049c0.318-0.318,0.635-0.508,0.954-0.572
		c0.318,0,0.635,0.095,0.954,0.286c0.318,0.191,0.668,0.414,1.049,0.668l1.144,0.763c0.381,0.191,0.763,0.255,1.144,0.191
		c0.508-0.444,1.016-0.985,1.526-1.621c0.191-0.063,0.318-0.158,0.381-0.286c0.635-0.699,1.367-1.398,2.193-2.098
		c0.763-0.763,1.557-1.493,2.384-2.193c0.825-0.763,1.684-1.398,2.574-1.907c0.826-0.572,1.653-1.049,2.479-1.43
		c0.826-0.381,1.589-0.572,2.289-0.572c0.508-0.063,1.08-0.031,1.716,0.095c0.635,0.064,1.24,0.224,1.812,0.477
		c0.572,0.319,1.048,0.668,1.43,1.049c0.444,0.445,0.699,0.986,0.763,1.621c0.191,1.144,0.063,2.257-0.381,3.338
		c-0.445,1.082-1.112,2.066-2.002,2.956c-0.954,0.954-2.098,1.78-3.433,2.479c-1.335,0.7-2.799,1.273-4.386,1.716
		c-1.59,0.381-3.242,0.636-4.959,0.763c-1.716,0.064-3.497-0.063-5.34-0.381c-0.064,0.128-0.191,0.319-0.381,0.572l-0.381,0.763
		c-0.191,0.319-0.35,0.605-0.477,0.858c-0.128,0.319-0.224,0.605-0.286,0.858c0,0.064-0.033,0.095-0.095,0.095
		c0,0.064-0.033,0.095-0.095,0.095c-0.064,0-0.128-0.031-0.191-0.095v-0.286c-0.064-0.508,0-1.049,0.191-1.621
		c0.127-0.572,0.318-1.111,0.572-1.621c-0.445-0.191-0.827-0.413-1.144-0.668c-0.319-0.253-0.572-0.508-0.763-0.763
		c-0.191-0.253-0.381-0.444-0.572-0.572c-0.128-0.127-0.224-0.158-0.286-0.095c-0.128-0.063-0.35,0.064-0.668,0.381
		c-0.319,0.319-0.731,0.7-1.24,1.144c-0.572,0.381-1.273,0.796-2.098,1.24c-0.763,0.445-1.685,0.763-2.765,0.954
		c-0.763-0.127-1.399-0.444-1.907-0.954c-0.445-0.508-0.858-1.111-1.24-1.812c-0.191-0.381-0.35-0.763-0.477-1.144
		c-0.064-0.253-0.128-0.477-0.191-0.668c-0.064-0.127-0.128-0.222-0.191-0.286c-0.128-0.318-0.224-0.539-0.286-0.668
		c-0.064-0.191-0.159-0.286-0.286-0.286c-0.064-0.063-0.128,0-0.191,0.191v0.477c-0.064,0.255-0.095,0.572-0.095,0.954
		c-0.064,0.319-0.128,0.7-0.191,1.144c-0.191,0.51-0.414,1.017-0.668,1.526c-0.255,0.445-0.541,0.891-0.858,1.335
		c-0.381,0.445-0.763,0.858-1.144,1.24s-0.763,0.7-1.144,0.954c-0.381,0.255-0.891,0.541-1.526,0.858
		c-0.636,0.319-1.304,0.605-2.003,0.858c-0.381,0.191-0.731,0.35-1.049,0.477c-0.381,0.128-0.763,0.286-1.144,0.477
		c-0.7,0.255-1.304,0.541-1.812,0.858c-0.572,0.255-1.049,0.541-1.43,0.858c-0.319,0.255-0.477,0.477-0.477,0.668
		c0.127,0.51,0.699,0.922,1.716,1.24c1.08,0.255,2.511,0.414,4.291,0.477c1.779,0.128,3.877,0.159,6.294,0.095
		c2.415-0.062,5.054-0.158,7.915-0.286c2.923-0.127,5.975-0.253,9.154-0.381c3.305-0.191,6.611-0.318,9.917-0.381
		C153.776,119.911,155.618,119.847,157.463,119.847z M110.261,85.995l0.191-1.144l0.191-1.335c0-0.444,0.031-0.794,0.095-1.049
		c0.318,0.255,0.699,0.636,1.144,1.144c0.444,0.572,0.858,1.24,1.24,2.003c0.381,0.7,0.763,1.526,1.144,2.479
		c0.318,0.891,0.539,1.812,0.668,2.765c0.191,0.954,0.253,1.94,0.191,2.956c0,0.954-0.191,1.907-0.572,2.861l-0.095,0.191
		c0,0.064-0.033,0.128-0.095,0.191c-0.064,0.064-0.128,0.064-0.191,0V96.77c0-1.588-0.159-2.956-0.477-4.1
		c-0.255-1.207-0.605-2.193-1.049-2.956c-0.445-0.825-0.891-1.462-1.335-1.907c-0.381-0.381-0.7-0.668-0.954-0.858
		c-0.064-0.127-0.095-0.253-0.095-0.381V85.995z M111.024,178.015c0.127,0.129,0.286,0.191,0.477,0.191
		c0.253,0.064,0.508,0.096,0.763,0.096c0.253,0,0.477-0.032,0.668-0.096c0.191-0.062,0.349-0.127,0.477-0.191
		c0.127-0.062,0.158-0.158,0.095-0.286c-0.636-0.763-1.177-1.176-1.621-1.24c-0.445,0-0.796,0.381-1.049,1.144
		C110.833,177.824,110.896,177.953,111.024,178.015z M126.377,247.53c-0.319-2.097-0.796-4.004-1.43-5.721
		c-0.636-1.653-1.368-3.115-2.193-4.386c-0.827-1.273-1.654-2.227-2.479-2.862c-0.128-0.128-0.286-0.159-0.477-0.095
		c-0.191,0.063-0.381,0.158-0.572,0.287l-0.572,0.19c-0.255,0.127-0.477,0.159-0.668,0.096c-0.572-0.191-1.017-0.509-1.335-0.954
		c-0.255-0.381-0.414-0.858-0.477-1.43c-0.128-0.508-0.191-1.049-0.191-1.622v-1.335c0-0.381,0.031-0.794,0.095-1.239
		c0-0.444,0.063-0.826,0.191-1.144c0.127-0.381,0.318-0.699,0.572-0.954c0.253-0.191,0.635-0.287,1.144-0.287
		c0.699,0,1.462,0.319,2.289,0.954c0.825,0.636,1.653,1.495,2.479,2.575c0.763,1.081,1.493,2.352,2.193,3.814
		c0.699,1.461,1.302,3.082,1.812,4.863c0.508,1.716,0.858,3.496,1.049,5.34c0.253,1.843,0.286,3.687,0.095,5.531
		c0.318-0.891,0.572-1.876,0.763-2.956c0.127-1.144,0.222-2.289,0.286-3.433c0.127-1.144,0.191-2.258,0.191-3.338
		c0-1.081-0.033-2.035-0.095-2.861c-0.064-2.416,0-4.704,0.191-6.866c0.191-2.225,0.508-4.163,0.954-5.816
		c0.381-1.589,0.921-2.861,1.621-3.814c0.699-0.954,1.462-1.367,2.289-1.24c0.572,0,1.049,0.16,1.43,0.477
		c0.381,0.255,0.699,0.572,0.954,0.954c0.253,0.381,0.444,0.796,0.572,1.239c0.127,0.51,0.191,0.986,0.191,1.431
		c0,1.399-0.128,2.383-0.381,2.956c-0.255,0.572-0.572,0.923-0.954,1.049c-0.381,0.064-0.763,0.033-1.144-0.096
		c-0.445-0.127-0.858-0.222-1.24-0.286c-0.445-0.063-0.827,0.255-1.144,0.954c-0.319,0.636-0.605,1.494-0.858,2.574
		c-0.191,1.144-0.381,2.352-0.572,3.624c-0.128,1.335-0.224,2.606-0.286,3.814c-0.128,1.207-0.224,2.256-0.286,3.146v1.622
		c-0.191,2.098-0.445,3.877-0.763,5.34c-0.319,1.526-0.636,2.797-0.954,3.814c-0.381,0.954-0.731,1.684-1.049,2.193
		c-0.319,0.508-0.51,0.826-0.572,0.954c-0.255,0.126-0.414,0.126-0.477,0c-0.064-0.065-0.095-0.16-0.095-0.287
		C126.725,251.885,126.694,249.629,126.377,247.53z M118.843,80.559c-0.319-0.253-0.541-0.572-0.668-0.954
		c-0.064-0.318-0.095-0.73-0.095-1.24c0-0.444,0.031-0.858,0.095-1.24c0.063-0.381,0.127-0.73,0.191-1.049
		c0.127-0.253,0.191-0.444,0.191-0.572c0.253-0.635,0.444-0.985,0.572-1.049c0.191-0.063,0.222,0.064,0.095,0.381
		c0,0.128-0.033,0.35-0.095,0.668c-0.128,0.381-0.159,0.731-0.095,1.049c0,0.381,0.127,0.7,0.381,0.954
		c0.253,0.255,0.668,0.35,1.24,0.286c0.572-0.063,0.985-0.191,1.24-0.381c0.253-0.253,0.444-0.572,0.572-0.954
		c0.063-0.318,0.127-0.668,0.191-1.049c0.063-0.444,0.158-0.858,0.286-1.24c0.127-0.381,0.253-0.635,0.381-0.763
		c0.127-0.191,0.222-0.286,0.286-0.286c0.063,0,0.127,0.064,0.191,0.191v0.095c-0.064,0.128-0.095,0.255-0.095,0.381
		c0,0.064-0.033,0.128-0.095,0.191c-0.064,0.255-0.095,0.541-0.095,0.858v0.763c0.063,0.255,0.191,0.477,0.381,0.668
		c0,0.064,0.095,0.095,0.286,0.095c0.191,0.064,0.381,0.095,0.572,0.095c0.191,0,0.413-0.031,0.668-0.095
		c0.191-0.063,0.349-0.158,0.477-0.286c0.063-0.127,0.095-0.253,0.095-0.381c0-0.127-0.033-0.286-0.095-0.477
		c0-0.191-0.033-0.349-0.095-0.477c-0.064-0.127-0.095-0.222-0.095-0.286c0-0.063,0.031-0.191,0.095-0.381
		c0.127-0.191,0.253-0.413,0.381-0.668c0.127-0.191,0.253-0.349,0.381-0.477c0.127-0.191,0.191-0.253,0.191-0.191
		c0.127,1.654,0.095,2.956-0.095,3.91c-0.255,0.954-0.605,1.621-1.049,2.003c-0.381,0.51-0.827,0.763-1.335,0.763
		c-0.51,0.064-0.922-0.031-1.24-0.286c-0.128-0.063-0.286-0.031-0.477,0.095l-0.668,0.668c-0.255,0.255-0.51,0.477-0.763,0.668
		c-0.319,0.191-0.668,0.286-1.049,0.286C119.511,80.845,119.097,80.75,118.843,80.559z M136.771,82.657
		c-0.7-0.825-1.113-1.843-1.24-3.051c-0.064-1.271,0.095-2.606,0.477-4.005c0.381-1.335,0.825-2.575,1.335-3.719
		c0.572-1.144,1.111-2.098,1.621-2.861c0.572-0.699,0.954-1.049,1.144-1.049c0.127,0,0.222,0.033,0.286,0.095
		c0,0.064-0.033,0.159-0.095,0.286c-1.082,1.463-1.749,2.765-2.003,3.91c-0.255,1.208-0.224,2.226,0.095,3.051
		c0.318,0.827,0.858,1.463,1.621,1.907c0.699,0.51,1.462,0.827,2.289,0.954c0.89,0.064,1.779-0.031,2.67-0.286
		c0.89-0.318,1.588-0.858,2.098-1.621c0.191-0.253,0.349-0.318,0.477-0.191c0.063,0.064,0.031,0.286-0.095,0.668
		c-0.255,0.763-0.636,1.621-1.144,2.575c-0.445,0.891-0.954,1.685-1.526,2.384c-0.636,0.763-1.335,1.368-2.098,1.812
		c-0.7,0.51-1.494,0.731-2.384,0.668C138.645,84.056,137.47,83.548,136.771,82.657z M141.92,140.444
		c1.588-0.572,3.338-1.207,5.245-1.907c1.843-0.635,3.781-1.302,5.816-2.003c0.381-0.191,0.763-0.349,1.144-0.477
		c1.589-0.508,3.051-1.016,4.386-1.526c1.716-0.572,3.147-1.08,4.292-1.526c1.144-0.381,1.843-0.635,2.098-0.763
		c0.508-0.191,0.825-0.253,0.954-0.191c0.127,0.064,0.095,0.35-0.096,0.858c-0.318,0.7-0.605,1.208-0.858,1.526
		c-0.191,0.381-0.35,0.636-0.477,0.763c-0.128,0.064-0.54,0.255-1.239,0.572c-0.763,0.319-1.716,0.668-2.861,1.049
		c-1.017,0.381-2.162,0.827-3.433,1.335c-0.191,0-0.35,0.033-0.477,0.095c-1.463,0.572-2.988,1.144-4.577,1.716
		c-0.7,0.255-1.43,0.541-2.193,0.858c-0.827,0.319-1.654,0.605-2.479,0.858l-4.482,1.716c-1.335,0.572-2.512,1.049-3.528,1.43
		c-1.017,0.445-1.78,0.827-2.289,1.144c0.191-0.699,0.381-1.335,0.572-1.907c0.127-0.508,0.286-0.954,0.477-1.335
		c0.127-0.444,0.286-0.73,0.477-0.858C139.155,141.493,140.33,141.016,141.92,140.444z M144.113,130.813
		c1.588-0.572,3.338-1.207,5.245-1.907c1.843-0.699,3.781-1.398,5.817-2.098c0.127,0,0.286-0.031,0.476-0.095
		c1.779-0.635,3.465-1.24,5.054-1.812c0.954-0.318,1.811-0.635,2.574-0.954c0.635-0.191,1.207-0.381,1.716-0.572
		c1.144-0.444,1.843-0.73,2.098-0.858c0.508-0.127,0.826-0.158,0.954-0.095c0.127,0.064,0.096,0.319-0.095,0.763
		c-0.319,0.7-0.605,1.24-0.859,1.621c-0.191,0.381-0.35,0.636-0.476,0.763c-0.129,0.064-0.541,0.255-1.24,0.572
		c-0.763,0.255-1.716,0.605-2.861,1.049l-1.335,0.477c-0.763,0.319-1.621,0.636-2.574,0.954c-0.636,0.255-1.273,0.477-1.907,0.668
		l-2.67,1.049c-0.763,0.255-1.495,0.51-2.194,0.763l-2.479,0.954c-1.526,0.572-2.989,1.144-4.386,1.716
		c-1.399,0.51-2.608,0.986-3.624,1.43c-1.017,0.445-1.78,0.827-2.289,1.144c0.191-0.699,0.381-1.335,0.572-1.907
		c0.127-0.508,0.286-0.985,0.477-1.43c0.127-0.381,0.286-0.635,0.477-0.763C141.348,131.862,142.524,131.385,144.113,130.813z
		 M142.874,160.278c-0.51-0.444-0.891-0.985-1.144-1.621c-0.191-0.699-0.286-1.462-0.286-2.289c0-0.763,0.062-1.493,0.191-2.193
		c0.127-0.699,0.286-1.335,0.477-1.907c0.063-0.318,0.127-0.604,0.191-0.858c0.063-0.127,0.095-0.222,0.095-0.286
		c0.381-1.08,0.73-1.684,1.049-1.812c0.318-0.127,0.381,0.128,0.191,0.763c-0.064,0.191-0.159,0.572-0.286,1.144
		c-0.128,0.636-0.159,1.273-0.095,1.907c0.063,0.636,0.286,1.208,0.668,1.716c0.508,0.445,1.335,0.636,2.479,0.572
		c1.016-0.127,1.748-0.413,2.193-0.858c0.444-0.381,0.763-0.89,0.954-1.526c0.191-0.635,0.318-1.335,0.381-2.098
		c0.062-0.699,0.222-1.43,0.477-2.193c0.253-0.699,0.508-1.176,0.763-1.43c0.191-0.253,0.349-0.381,0.476-0.381
		c0.127,0,0.223,0.064,0.287,0.191c0.062,0.128,0.062,0.255,0,0.381c0,0.064-0.033,0.159-0.096,0.286l-0.095,0.763
		c-0.129,0.445-0.224,0.891-0.287,1.335c0,0.51,0.032,1.017,0.096,1.526c0.062,0.51,0.253,0.891,0.572,1.144
		c0.062,0.128,0.253,0.224,0.572,0.286c0.318,0.064,0.667,0.095,1.048,0.095c0.381,0,0.763-0.063,1.144-0.191
		c0.381-0.127,0.668-0.318,0.859-0.572c0.127-0.127,0.191-0.349,0.191-0.668c0-0.253-0.033-0.539-0.096-0.858
		c-0.064-0.318-0.128-0.604-0.191-0.858c-0.064-0.253-0.128-0.413-0.191-0.477c-0.064-0.127,0.032-0.381,0.287-0.763l0.572-1.144
		c0.253-0.381,0.476-0.699,0.667-0.954c0.254-0.253,0.381-0.318,0.381-0.191c0.254,2.989,0.191,5.34-0.191,7.056
		c-0.445,1.654-1.048,2.894-1.811,3.719c-0.763,0.827-1.59,1.24-2.479,1.24c-0.892,0.064-1.622-0.127-2.194-0.572
		c-0.255-0.191-0.572-0.095-0.953,0.286c-0.319,0.255-0.7,0.605-1.144,1.049c-0.445,0.445-0.954,0.858-1.526,1.24
		c-0.572,0.381-1.177,0.572-1.812,0.572C144.176,160.85,143.382,160.659,142.874,160.278z M144.972,91.621
		c0.89-0.318,1.843-0.668,2.861-1.049c0.444-0.127,0.921-0.286,1.43-0.477l1.811-0.668c0.254-0.063,0.539-0.158,0.859-0.286
		c0.763-0.253,1.493-0.508,2.193-0.763c0.444-0.191,0.859-0.349,1.24-0.477c0.381-0.127,0.73-0.253,1.048-0.381
		c0.635-0.191,1.049-0.318,1.24-0.381c0.253-0.127,0.412-0.158,0.476-0.095c0.063,0,0.032,0.128-0.095,0.381
		c-0.129,0.381-0.255,0.7-0.381,0.954c-0.129,0.191-0.255,0.319-0.381,0.381l-0.668,0.286c-0.381,0.191-0.891,0.381-1.526,0.572
		c-0.318,0.128-0.667,0.255-1.048,0.381c-0.319,0.128-0.701,0.286-1.144,0.477c-0.191,0.064-0.414,0.128-0.668,0.191
		c-0.572,0.255-1.177,0.477-1.811,0.668c-0.445,0.191-0.891,0.35-1.335,0.477c-0.381,0.191-0.796,0.35-1.24,0.477
		c-0.827,0.319-1.621,0.636-2.384,0.954c-0.763,0.319-1.463,0.605-2.098,0.858c-0.572,0.191-0.986,0.381-1.24,0.572
		c0.127-0.381,0.222-0.73,0.286-1.049c0.127-0.253,0.222-0.508,0.286-0.763c0.127-0.253,0.222-0.413,0.286-0.477
		C143.413,92.193,144.08,91.94,144.972,91.621z M152.409,101.538c-0.827,0.319-1.685,0.763-2.574,1.335
		c-0.891,0.572-1.812,1.24-2.765,2.003c-0.891,0.763-1.749,1.59-2.575,2.479c1.398,0.064,2.702,0.033,3.91-0.095
		c1.271-0.127,2.479-0.286,3.623-0.477c1.08-0.191,2.098-0.413,3.051-0.668c0.954-0.318,1.748-0.604,2.384-0.858
		c0.699-0.253,1.239-0.539,1.621-0.858c0.444-0.253,0.668-0.477,0.668-0.668c0.127-0.444,0.031-0.858-0.287-1.24
		c-0.318-0.381-0.763-0.699-1.335-0.954c-0.572-0.318-1.177-0.539-1.811-0.668c-0.636-0.127-1.24-0.158-1.812-0.095
		C153.935,100.903,153.235,101.156,152.409,101.538z M147.451,255.159c-0.7-0.891-1.113-1.939-1.24-3.146
		c-0.064-1.208,0.095-2.479,0.477-3.814c0.381-1.399,0.825-2.67,1.335-3.814c0.572-1.144,1.111-2.098,1.621-2.861
		c0.572-0.7,0.985-1.048,1.239-1.048c0.063,0,0.127,0.062,0.191,0.19c0,0.063-0.033,0.127-0.095,0.192
		c-1.082,1.461-1.749,2.796-2.003,4.004c-0.255,1.144-0.224,2.13,0.095,2.957c0.318,0.826,0.858,1.493,1.621,2.002
		c0.699,0.508,1.462,0.795,2.289,0.859c0.89,0.127,1.748,0.031,2.575-0.286c0.89-0.319,1.588-0.828,2.098-1.526
		c0.191-0.319,0.349-0.414,0.476-0.287c0.063,0.127,0.032,0.349-0.095,0.668c-0.255,0.825-0.605,1.652-1.049,2.478
		c-0.445,0.89-0.986,1.685-1.621,2.384c-0.572,0.763-1.208,1.398-1.907,1.907c-0.763,0.444-1.59,0.635-2.479,0.572
		C149.325,256.462,148.15,255.985,147.451,255.159z M157.082,76.745c-0.381-0.508-0.605-1.08-0.668-1.716
		c0-0.699,0.096-1.398,0.287-2.098c0.191-0.763,0.443-1.462,0.763-2.098c0.253-0.635,0.539-1.176,0.858-1.621
		c0.318-0.381,0.539-0.572,0.668-0.572c0.062,0,0.095,0.033,0.095,0.095v0.095c-0.572,0.827-0.954,1.559-1.144,2.193
		c-0.128,0.636-0.095,1.208,0.096,1.716c0.191,0.445,0.476,0.796,0.858,1.049c0.381,0.255,0.795,0.414,1.24,0.477
		c0.508,0.064,0.985,0,1.43-0.191c0.508-0.127,0.89-0.413,1.144-0.858c0.127-0.127,0.223-0.158,0.287-0.095
		c0.062,0.064,0.062,0.191,0,0.381c-0.191,0.445-0.414,0.891-0.668,1.335c-0.255,0.51-0.54,0.954-0.858,1.335
		c-0.319,0.445-0.668,0.796-1.049,1.049c-0.445,0.255-0.891,0.35-1.335,0.286C158.193,77.445,157.525,77.19,157.082,76.745z
		 M178.251,103.827c-0.319-2.098-0.763-3.972-1.335-5.626c-0.636-1.716-1.368-3.178-2.194-4.386
		c-0.891-1.271-1.716-2.225-2.479-2.861c-0.191-0.063-0.381-0.063-0.572,0c-0.128,0-0.286,0.064-0.476,0.191
		c-0.191,0.128-0.414,0.224-0.668,0.286c-0.191,0.064-0.414,0.064-0.667,0c-0.572-0.127-0.986-0.413-1.24-0.858
		c-0.255-0.444-0.445-0.921-0.572-1.43c-0.128-0.572-0.159-1.111-0.095-1.621v-2.575c0.062-0.444,0.158-0.858,0.286-1.24
		c0.127-0.381,0.287-0.668,0.477-0.858c0.253-0.253,0.634-0.381,1.144-0.381c0.763,0,1.557,0.319,2.383,0.954
		c0.826,0.636,1.622,1.494,2.384,2.575c0.763,1.082,1.493,2.352,2.193,3.814c0.699,1.526,1.302,3.115,1.812,4.768
		c0.508,1.716,0.89,3.497,1.144,5.34c0.191,1.907,0.222,3.783,0.095,5.626c0.254-0.89,0.477-1.907,0.668-3.051
		c0.191-1.08,0.318-2.193,0.381-3.338c0.062-1.207,0.095-2.32,0.095-3.338v-2.861c-0.128-2.351-0.095-4.64,0.096-6.866
		c0.191-2.16,0.508-4.068,0.954-5.721c0.443-1.716,1.016-3.051,1.716-4.005c0.699-0.89,1.493-1.302,2.383-1.24
		c0.508,0.064,0.954,0.224,1.335,0.477c0.381,0.255,0.699,0.605,0.954,1.049c0.318,0.381,0.508,0.796,0.572,1.24
		c0.127,0.445,0.191,0.922,0.191,1.43c0,1.463-0.128,2.448-0.381,2.956c-0.191,0.572-0.476,0.922-0.858,1.049
		c-0.381,0.128-0.796,0.095-1.24-0.095c-0.445-0.127-0.858-0.222-1.239-0.286c-0.381-0.063-0.732,0.255-1.049,0.954
		c-0.318,0.7-0.636,1.59-0.954,2.67c-0.255,1.082-0.445,2.289-0.572,3.624c-0.191,1.273-0.318,2.512-0.381,3.719
		c-0.064,1.144-0.128,2.162-0.191,3.051c-0.064,0.891-0.095,1.463-0.095,1.716c-0.129,2.035-0.35,3.814-0.668,5.34
		c-0.381,1.463-0.731,2.703-1.048,3.719c-0.319,1.017-0.636,1.78-0.954,2.289c-0.319,0.51-0.541,0.796-0.668,0.858
		c-0.191,0.191-0.318,0.191-0.381,0l-0.191-0.191C178.6,108.213,178.569,105.924,178.251,103.827z M178.537,133.197
		c-0.381-0.444-0.605-0.985-0.667-1.621c0-0.572,0.062-1.207,0.191-1.907c0.191-0.699,0.443-1.335,0.763-1.907
		c0.253-0.572,0.508-1.049,0.763-1.43c0.253-0.318,0.443-0.477,0.572-0.477h0.095c0.063,0.064,0.063,0.128,0,0.191
		c-0.509,0.7-0.827,1.335-0.954,1.907c-0.128,0.636-0.128,1.144,0,1.526c0.191,0.445,0.444,0.763,0.763,0.954
		c0.381,0.255,0.795,0.414,1.24,0.477c0.381,0.064,0.794,0.033,1.239-0.095c0.444-0.191,0.795-0.477,1.049-0.858
		c0.191-0.127,0.286-0.158,0.286-0.095c0.063,0.064,0.063,0.191,0,0.381c-0.191,0.381-0.414,0.796-0.667,1.24
		c-0.191,0.445-0.445,0.827-0.763,1.144c-0.255,0.381-0.572,0.7-0.954,0.954c-0.381,0.255-0.796,0.35-1.24,0.286
		C179.427,133.802,178.855,133.578,178.537,133.197z M181.303,221.116c-0.381-0.508-0.605-1.111-0.668-1.811
		c-0.064-0.763,0-1.526,0.191-2.289c0.254-0.826,0.539-1.589,0.859-2.289c0.318-0.699,0.634-1.271,0.954-1.716
		c0.318-0.444,0.572-0.668,0.763-0.668c0.062,0,0.095,0.033,0.095,0.096v0.191c-0.636,0.827-1.048,1.59-1.239,2.289
		c-0.129,0.7-0.096,1.303,0.095,1.811c0.191,0.51,0.477,0.923,0.859,1.24c0.508,0.255,1.016,0.414,1.526,0.476
		c0.508,0.064,1.016,0.033,1.526-0.095c0.572-0.191,1.016-0.508,1.335-0.954c0.127-0.191,0.191-0.254,0.191-0.191
		c0.062,0.064,0.062,0.224,0,0.476c-0.191,0.445-0.414,0.923-0.668,1.431c-0.255,0.509-0.572,0.986-0.954,1.43
		c-0.318,0.445-0.7,0.827-1.144,1.144c-0.445,0.255-0.954,0.381-1.526,0.381C182.478,221.943,181.746,221.626,181.303,221.116z
		 M201.137,102.205c-0.827-0.635-1.24-1.493-1.24-2.575c0-0.127,0.032-0.349,0.096-0.668c0.062-0.381,0.191-0.825,0.381-1.335
		c0.191-0.444,0.476-0.954,0.858-1.526c0.318-0.572,0.763-1.111,1.335-1.621c0.826-0.763,1.653-1.302,2.479-1.621
		c0.826-0.318,1.493-0.381,2.003-0.191c0.634,0.255,1.048,0.731,1.239,1.43c0.191,0.763,0.254,1.59,0.191,2.479
		c-0.064,0.827-0.191,1.685-0.381,2.575c-0.255,0.827-0.445,1.494-0.572,2.003c0.444,0.255,0.954,0.572,1.526,0.954
		c0.508,0.445,0.859,0.827,1.049,1.144c0,0.128-0.064,0.381-0.191,0.763c-0.129,0.319-0.287,0.668-0.477,1.049
		c-0.191,0.445-0.381,0.827-0.572,1.144l-0.572,0.858c-0.128-0.191-0.318-0.381-0.572-0.572c-0.255-0.191-0.476-0.381-0.667-0.572
		l-0.763-0.572c-0.255-0.191-0.445-0.318-0.572-0.381c-0.445,0.572-1.113,1.399-2.003,2.479c-0.891,1.017-2.193,2.162-3.909,3.433
		c-1.526,1.208-2.894,2.131-4.101,2.765c-1.144,0.7-2.289,1.304-3.433,1.812c-1.081,0.51-2.257,0.986-3.528,1.43
		c-1.208,0.445-2.67,0.986-4.386,1.621c-1.082,0.445-1.654,0.572-1.716,0.381c0-0.191,0.443-0.572,1.335-1.144
		c1.653-1.08,3.4-2.129,5.244-3.147l5.34-3.242c1.779-1.08,3.496-2.225,5.149-3.433c1.653-1.144,3.147-2.384,4.482-3.719
		C202.916,103.573,201.9,102.906,201.137,102.205z M190.552,168.193c-0.445-0.508-0.7-1.144-0.763-1.907
		c-0.064-0.699,0.032-1.462,0.287-2.289c0.191-0.826,0.443-1.589,0.763-2.289c0.318-0.699,0.634-1.271,0.954-1.716
		c0.381-0.444,0.634-0.635,0.763-0.572h0.095c0.063,0.064,0.063,0.128,0,0.191c-0.636,0.891-1.048,1.685-1.239,2.383
		c-0.129,0.701-0.096,1.304,0.095,1.812c0.191,0.445,0.508,0.827,0.954,1.144c0.381,0.318,0.859,0.509,1.431,0.572
		c0.508,0.064,1.016,0,1.526-0.191c0.508-0.191,0.921-0.508,1.239-0.954c0.127-0.191,0.223-0.254,0.287-0.191
		c0.062,0.064,0.031,0.224-0.096,0.476c-0.191,0.445-0.414,0.923-0.667,1.431c-0.255,0.572-0.572,1.048-0.954,1.43
		c-0.319,0.445-0.701,0.827-1.144,1.144c-0.445,0.255-0.923,0.381-1.431,0.381C191.633,168.989,190.934,168.702,190.552,168.193z
		 M199.23,226.362c0.381-0.89,0.825-1.779,1.335-2.67c0.508-0.89,1.048-1.748,1.621-2.575c0.635-0.825,1.24-1.588,1.812-2.289
		c0.508-0.634,0.985-1.175,1.43-1.621l0.859-0.859c0.318-0.443,0.253-0.89-0.191-1.335c-0.445-0.381-1.144-0.699-2.098-0.954
		c-0.892-0.318-1.907-0.539-3.051-0.667c-1.144-0.127-2.194-0.127-3.147,0c0-0.254,0.158-0.635,0.477-1.144
		c0.318-0.508,0.73-1.049,1.239-1.622c0.508-0.508,1.111-0.985,1.812-1.43c0.699-0.381,1.43-0.604,2.193-0.668
		c0.635,0,1.271,0.064,1.907,0.191c0.635,0.191,1.24,0.445,1.812,0.763c0.508,0.381,0.954,0.763,1.335,1.144
		c0.381,0.445,0.634,0.923,0.763,1.431c0.127,0.891,0.031,1.78-0.287,2.67c-0.318,0.891-0.796,1.749-1.43,2.574
		c-0.572,0.827-1.24,1.622-2.003,2.384c-0.7,0.827-1.368,1.59-2.002,2.289c-0.572,0.7-1.049,1.399-1.431,2.098
		c-0.381,0.7-0.476,1.335-0.286,1.907c0.191,0.572,0.603,1.017,1.239,1.335c0.699,0.318,1.526,0.509,2.479,0.572
		c1.017,0.064,2.13-0.032,3.338-0.287c1.206-0.191,2.446-0.539,3.719-1.048c1.207-0.444,2.415-1.049,3.624-1.812
		c1.144-0.763,2.194-1.653,3.147-2.67c0.253-0.253,0.476-0.381,0.667-0.381c0.191,0.064,0.254,0.255,0.191,0.572
		c-2.035,3.624-4.386,6.389-7.056,8.297c-2.67,1.907-5.626,2.861-8.868,2.861c-0.827,0-1.59-0.127-2.289-0.381
		c-0.701-0.254-1.273-0.572-1.716-0.954c-0.51-0.381-0.923-0.859-1.24-1.431c-0.255-0.508-0.381-1.048-0.381-1.621
		C198.753,228.206,198.911,227.315,199.23,226.362z M206.096,99.059c0-0.444-0.033-0.89-0.096-1.335
		c-0.064-0.444-0.224-0.794-0.476-1.049c-0.191-0.318-0.477-0.477-0.859-0.477c-0.128,0-0.318,0.064-0.572,0.191
		c-0.255,0.064-0.476,0.159-0.667,0.286c-0.255,0.191-0.477,0.35-0.668,0.477c-0.191,0.191-0.286,0.35-0.286,0.477
		c0,0.191,0.095,0.414,0.286,0.668c0.254,0.255,0.539,0.51,0.859,0.763c0.318,0.191,0.667,0.414,1.048,0.668
		c0.381,0.191,0.73,0.381,1.049,0.572h0.095C205.936,99.981,206.032,99.568,206.096,99.059z M219.255,164.188
		c0.062,0,0.062,0.159,0,0.476c-0.129,0.827-0.319,1.654-0.572,2.479c-0.255,0.763-0.541,1.464-0.859,2.098
		c-0.381,0.636-0.796,1.144-1.239,1.526c-0.445,0.381-0.892,0.572-1.335,0.572c-0.954,0.064-1.685-0.443-2.194-1.526
		c-0.509-1.016-0.7-2.415-0.572-4.196c0-1.206,0.191-2.574,0.572-4.1c0.381-1.462,0.826-2.923,1.335-4.386
		c0.508-1.398,1.017-2.637,1.526-3.719c0.508-1.08,0.921-1.843,1.24-2.289l0.476-0.763c0.191-0.191,0.318-0.286,0.381-0.286
		c0.127-0.062,0.158,0,0.096,0.191c-0.064,0.191-0.191,0.51-0.381,0.954c-0.636,1.335-1.273,2.956-1.907,4.863
		c-0.701,1.971-1.208,4.069-1.526,6.293c-0.129,0.701-0.129,1.368,0,2.003c0.062,0.636,0.191,1.208,0.381,1.716
		c0.191,0.445,0.412,0.796,0.667,1.048c0.254,0.255,0.539,0.35,0.859,0.287c0.318,0,0.603-0.096,0.858-0.287
		c0.254-0.191,0.477-0.443,0.668-0.763c0.253-0.253,0.476-0.572,0.667-0.954l0.191-0.381c0.127-0.191,0.223-0.349,0.287-0.476
		C219.001,164.316,219.127,164.188,219.255,164.188z M219.35,209.96c-0.445-0.572-0.7-1.207-0.763-1.907
		c0-0.699,0.096-1.462,0.287-2.289c0.253-0.826,0.539-1.589,0.858-2.289c0.318-0.699,0.635-1.271,0.954-1.716
		c0.318-0.444,0.539-0.668,0.668-0.668c0.062,0,0.095,0.033,0.095,0.096c0.063,0.064,0.063,0.128,0,0.191
		c-0.636,0.891-1.017,1.685-1.144,2.383c-0.191,0.701-0.191,1.273,0,1.716c0.191,0.51,0.508,0.923,0.954,1.24
		c0.444,0.255,0.921,0.414,1.431,0.476c0.572,0.064,1.111,0.033,1.621-0.095c0.508-0.191,0.921-0.508,1.24-0.954
		c0.127-0.191,0.222-0.254,0.286-0.191c0.063,0.064,0.063,0.224,0,0.476c-0.191,0.445-0.414,0.923-0.667,1.431
		c-0.319,0.509-0.636,0.986-0.954,1.43c-0.381,0.445-0.827,0.827-1.335,1.144c-0.445,0.255-0.923,0.381-1.431,0.381
		C220.495,210.756,219.795,210.469,219.35,209.96z M220.113,113.553c-0.381-0.508-0.605-1.111-0.667-1.812
		c-0.064-0.763,0.031-1.557,0.286-2.384c0.191-0.763,0.444-1.493,0.763-2.193c0.318-0.699,0.635-1.271,0.954-1.716
		c0.318-0.444,0.572-0.668,0.763-0.668c0.063,0,0.096,0.033,0.096,0.095v0.095c-0.636,0.891-1.049,1.685-1.24,2.384
		c-0.128,0.7-0.095,1.304,0.096,1.812c0.191,0.51,0.508,0.922,0.954,1.24c0.381,0.255,0.858,0.414,1.43,0.477
		c0.572,0.064,1.08,0,1.526-0.191c0.572-0.127,1.017-0.413,1.336-0.858c0.126-0.191,0.19-0.253,0.19-0.191
		c0.063,0.064,0.063,0.191,0,0.381c-0.19,0.51-0.414,1.017-0.667,1.526c-0.255,0.51-0.572,0.986-0.954,1.43
		c-0.319,0.445-0.701,0.827-1.144,1.144c-0.51,0.255-1.017,0.35-1.526,0.286C221.289,114.349,220.558,114.063,220.113,113.553z
		 M237.946,142.637c0.127,0,0.158,0.191,0.096,0.572c-0.129,0.827-0.319,1.621-0.573,2.384c-0.255,0.827-0.54,1.559-0.858,2.193
		c-0.381,0.636-0.796,1.144-1.239,1.526c-0.446,0.319-0.892,0.477-1.336,0.477c-0.953,0.064-1.684-0.413-2.193-1.43
		c-0.509-1.08-0.7-2.479-0.572-4.196c0-1.271,0.191-2.637,0.572-4.1c0.381-1.462,0.826-2.892,1.335-4.291
		c0.508-1.398,1.017-2.637,1.526-3.719c0.508-1.08,0.921-1.843,1.239-2.289c0.192-0.318,0.349-0.572,0.477-0.763l0.381-0.381
		c0.063,0,0.096,0.095,0.096,0.286l-0.381,0.954c-0.637,1.273-1.273,2.894-1.907,4.863c-0.701,1.907-1.209,3.974-1.526,6.198
		c-0.129,0.7-0.129,1.368,0,2.003c0.062,0.636,0.19,1.177,0.381,1.621c0.126,0.51,0.349,0.891,0.667,1.144
		c0.254,0.255,0.539,0.35,0.859,0.286c0.317-0.063,0.603-0.191,0.858-0.381c0.254-0.191,0.476-0.413,0.668-0.667
		c0.253-0.318,0.476-0.635,0.667-0.954l0.191-0.381c0.063-0.191,0.158-0.349,0.287-0.477
		C237.786,142.796,237.882,142.637,237.946,142.637z M235.848,167.24c-0.445-0.572-0.668-1.207-0.668-1.907
		c-0.064-0.699,0-1.462,0.192-2.289c0.253-0.826,0.539-1.589,0.858-2.289c0.318-0.699,0.635-1.271,0.954-1.716
		c0.318-0.444,0.539-0.668,0.667-0.668c0.063,0,0.127,0.033,0.192,0.095v0.191c-0.701,0.891-1.113,1.685-1.24,2.383
		c-0.128,0.701-0.096,1.273,0.096,1.716c0.19,0.51,0.476,0.923,0.858,1.24c0.444,0.318,0.921,0.476,1.431,0.476
		c0.507,0.129,1.016,0.096,1.526-0.095c0.507-0.191,0.921-0.508,1.239-0.954c0.127-0.191,0.222-0.254,0.287-0.191
		c0.062,0.064,0.062,0.224,0,0.476c-0.192,0.445-0.414,0.923-0.668,1.431c-0.255,0.509-0.572,0.986-0.954,1.43
		c-0.318,0.445-0.7,0.827-1.144,1.144c-0.445,0.255-0.923,0.381-1.43,0.381C237.023,168.035,236.292,167.749,235.848,167.24z"/>
</g>
</svg>
