<svg width="17" height="16" viewBox="0 0 17 16" fill="none" xmlns="http://www.w3.org/2000/svg">
<path d="M11.8573 10.5757L12.2373 10.1982L11.3548 9.31155L10.9765 9.68905L11.8573 10.5757ZM13.5115 10.0399L15.104 10.9057L15.6998 9.80738L14.1082 8.94238L13.5115 10.0399ZM15.4098 12.6257L14.2265 13.8032L15.1073 14.6891L16.2907 13.5124L15.4098 12.6257ZM13.5048 14.1816C12.2965 14.2949 9.17148 14.1941 5.78649 10.8291L4.90482 11.7149C8.59815 15.3874 12.114 15.5674 13.6215 15.4266L13.5048 14.1816ZM5.78649 10.8291C2.56065 7.62072 2.02565 4.92322 1.95899 3.75239L0.710652 3.82322C0.793986 5.29655 1.45649 8.28655 4.90482 11.7149L5.78649 10.8291ZM6.93232 5.67905L7.17149 5.44072L6.29149 4.55488L6.05232 4.79239L6.93232 5.67905ZM7.36149 2.41155L6.31149 1.00822L5.31065 1.75822L6.36065 3.16072L7.36149 2.41155ZM2.77732 0.702385L1.46899 2.00239L2.35065 2.88905L3.65815 1.58905L2.77732 0.702385ZM6.49232 5.23572C6.05065 4.79239 6.05065 4.79239 6.05065 4.79405H6.04899L6.04649 4.79738C6.00688 4.83731 5.97143 4.88115 5.94065 4.92822C5.89565 4.99488 5.84649 5.08239 5.80482 5.19322C5.70338 5.47932 5.67811 5.78689 5.73149 6.08572C5.84315 6.80655 6.33982 7.75905 7.61149 9.02405L8.49315 8.13739C7.30232 6.95405 7.01899 6.23405 6.96649 5.89405C6.94149 5.73238 6.96732 5.65239 6.97482 5.63405C6.97982 5.62294 6.97982 5.62127 6.97482 5.62905C6.96739 5.64055 6.95903 5.65142 6.94982 5.66155L6.94149 5.66988L6.93315 5.67738L6.49232 5.23572ZM7.61149 9.02405C8.88399 10.2891 9.84149 10.7824 10.5632 10.8924C10.9323 10.9491 11.2298 10.9041 11.4557 10.8199C11.5822 10.7736 11.7003 10.7072 11.8057 10.6232L11.8473 10.5857L11.8532 10.5807L11.8557 10.5782L11.8565 10.5766C11.8565 10.5766 11.8573 10.5757 11.4165 10.1324C10.9748 9.68905 10.9773 9.68822 10.9773 9.68822L10.979 9.68655L10.9807 9.68489L10.9857 9.68072L10.994 9.67239L11.0257 9.64739C11.0334 9.64239 11.0315 9.64294 11.0198 9.64905C10.999 9.65655 10.9173 9.68238 10.7532 9.65738C10.4082 9.60405 9.68315 9.32072 8.49315 8.13739L7.61149 9.02405ZM6.31149 1.00739C5.46149 -0.125948 3.79149 -0.305948 2.77732 0.702385L3.65815 1.58905C4.10149 1.14822 4.88815 1.19405 5.31065 1.75822L6.31149 1.00739ZM1.95982 3.75322C1.94315 3.46489 2.07565 3.16322 2.35065 2.88989L1.46815 2.00322C1.02065 2.44822 0.668152 3.07822 0.710652 3.82322L1.95982 3.75322ZM14.2265 13.8032C13.9982 14.0316 13.7515 14.1599 13.5057 14.1824L13.6215 15.4266C14.234 15.3691 14.7348 15.0607 15.1082 14.6899L14.2265 13.8032ZM7.17149 5.44072C7.99232 4.62489 8.05315 3.33572 7.36232 2.41238L6.36149 3.16155C6.69732 3.61072 6.64732 4.19988 6.29065 4.55572L7.17149 5.44072ZM15.1048 10.9066C15.7857 11.2766 15.8915 12.1482 15.4107 12.6266L16.2923 13.5124C17.409 12.4016 17.0648 10.5491 15.7007 9.80822L15.1048 10.9066ZM12.2373 10.1991C12.5573 9.88072 13.0723 9.80238 13.5123 10.0407L14.109 8.94322C13.2057 8.45155 12.0857 8.58739 11.3557 9.31238L12.2373 10.1991Z" fill="#B38F4B"/>
</svg>
